<?xml version="1.0" standalone="no"?>
<!DOCTYPE svg PUBLIC "-//W3C//DTD SVG 20010904//EN"
 "http://www.w3.org/TR/2001/REC-SVG-20010904/DTD/svg10.dtd">
<svg version="1.0" xmlns="http://www.w3.org/2000/svg"
 width="700.000000pt" height="700.000000pt" viewBox="0 0 700.000000 700.000000"
 preserveAspectRatio="xMidYMid meet">
<metadata>
Created by potrace 1.14, written by Peter Selinger 2001-2017
</metadata>
<g transform="translate(0.000000,700.000000) scale(0.100000,-0.100000)"
fill="#000000" stroke="none">
<path d="M4397 6758 c-136 -28 -306 -148 -532 -373 -123 -122 -174 -177 -255
-274 -25 -29 -50 -59 -55 -65 -29 -32 -162 -205 -231 -301 -129 -178 -426
-636 -457 -705 -4 -8 -17 -31 -29 -50 -40 -65 -145 -275 -183 -365 -57 -135
-68 -154 -133 -231 -52 -62 -61 -80 -72 -137 -14 -78 -25 -95 -130 -217 -126
-145 -268 -339 -455 -621 -93 -141 -188 -285 -210 -320 -95 -154 -153 -248
-184 -304 -19 -33 -43 -76 -54 -95 -45 -79 -307 -604 -361 -725 -32 -71 -69
-153 -82 -180 -26 -58 -112 -304 -119 -344 -17 -92 -16 -148 4 -205 l20 -58
-20 -76 c-23 -81 -21 -158 2 -173 8 -5 39 -13 69 -20 30 -6 120 -26 200 -45
250 -60 385 -86 615 -119 22 -4 81 -13 130 -21 50 -8 104 -17 120 -20 28 -4
114 -19 160 -28 11 -2 42 -7 68 -10 27 -4 56 -9 65 -11 10 -2 64 -12 122 -23
58 -12 148 -30 200 -42 52 -12 106 -24 120 -26 14 -3 36 -9 50 -13 14 -5 39
-12 55 -15 17 -3 131 -30 255 -61 124 -30 234 -57 245 -59 11 -2 81 -18 155
-36 74 -18 146 -34 160 -36 14 -3 33 -7 42 -10 10 -3 30 -8 45 -11 209 -40
233 -42 378 -39 167 3 216 15 260 67 20 24 23 37 19 75 -7 75 -49 141 -153
244 -91 89 -158 145 -411 339 -222 170 -419 326 -419 333 -1 9 191 -4 239 -17
8 -2 35 -7 60 -9 25 -3 84 -12 133 -21 48 -8 104 -18 125 -21 20 -3 39 -7 42
-9 3 -2 26 -6 50 -10 25 -4 108 -20 184 -36 77 -16 149 -31 160 -33 12 -3 93
-21 181 -41 88 -20 198 -45 245 -55 177 -40 417 -90 510 -106 175 -31 246 -40
455 -59 176 -17 460 -22 595 -11 131 10 209 44 216 94 11 71 -203 212 -549
363 -39 17 -97 43 -127 56 -204 93 -710 293 -1270 503 -223 84 -432 162 -465
175 -33 13 -157 60 -275 105 -368 141 -673 275 -743 326 -23 16 -8 16 143 -1
19 -2 60 -7 90 -10 30 -3 72 -8 92 -11 21 -3 51 -7 68 -9 17 -2 43 -6 58 -9
15 -3 47 -8 72 -11 56 -8 213 -35 315 -55 67 -14 94 -19 135 -26 19 -4 44 -8
55 -10 11 -3 33 -7 49 -10 226 -41 1628 -385 1733 -425 26 -10 28 -7 57 86 12
39 12 53 3 62 -10 10 -69 29 -147 48 -8 2 -64 15 -125 30 -142 34 -362 84
-394 90 -15 2 -78 16 -141 30 -63 14 -135 30 -160 35 -25 5 -54 11 -65 14 -11
2 -128 27 -260 55 -132 28 -289 62 -350 76 -113 25 -233 50 -295 60 -19 3 -53
10 -75 15 -22 5 -60 12 -85 15 -24 4 -47 8 -50 10 -3 2 -23 6 -45 9 -39 6
-129 22 -170 30 -11 2 -56 9 -100 16 -44 7 -87 14 -96 15 -9 2 -40 6 -70 10
-30 3 -65 8 -79 10 -14 2 -47 6 -75 10 -27 3 -63 7 -80 9 -110 13 -217 20
-325 20 -99 0 -132 -3 -157 -17 -18 -10 -33 -22 -33 -28 0 -19 72 -78 155
-128 137 -83 324 -166 620 -277 66 -25 134 -52 152 -60 17 -8 34 -14 38 -14 4
0 34 -11 68 -24 34 -13 96 -36 137 -51 41 -14 91 -33 110 -40 19 -7 67 -25
105 -39 294 -105 439 -158 710 -261 171 -64 324 -122 340 -130 17 -7 99 -40
183 -74 347 -139 842 -375 967 -461 57 -39 76 -74 52 -97 -26 -26 -217 -23
-447 8 -41 6 -86 12 -100 14 -14 1 -52 8 -85 14 -64 11 -96 17 -159 26 -21 4
-48 9 -60 11 -22 4 -121 22 -171 30 -16 3 -61 11 -100 19 -38 8 -86 17 -105
20 -19 3 -42 8 -50 10 -8 2 -26 6 -40 9 -37 6 -239 49 -475 101 -417 92 -520
114 -545 118 -24 5 -162 34 -205 43 -34 8 -417 74 -470 81 -27 4 -83 7 -122 8
-66 0 -75 -3 -99 -27 l-27 -26 36 -55 c60 -90 201 -211 512 -439 43 -32 213
-165 238 -186 139 -120 216 -199 264 -271 27 -41 33 -55 22 -61 -13 -9 -181
-5 -254 6 -22 3 -98 17 -170 31 -151 29 -134 25 -250 53 -235 56 -359 86 -585
145 -135 36 -256 66 -270 69 -14 2 -57 11 -96 20 -39 8 -138 27 -220 41 -82
14 -161 28 -174 30 -45 9 -74 14 -205 35 -159 26 -169 27 -223 35 -40 6 -169
29 -217 38 -11 3 -36 7 -55 11 -71 13 -86 16 -155 31 -38 9 -81 18 -94 21 -33
7 -15 22 34 29 165 25 418 281 843 850 62 83 115 155 120 160 61 80 330 484
438 658 43 70 96 155 118 190 21 34 46 76 56 92 10 17 48 82 85 145 105 178
141 244 211 390 36 74 71 146 77 159 7 13 26 30 42 37 83 36 137 101 155 188
9 45 21 63 86 132 436 460 1045 1427 1227 1950 31 87 53 160 61 199 4 17 9 41
12 55 11 49 12 197 3 241 -27 119 -99 214 -186 243 -50 17 -72 17 -136 4z
m-493 -776 c-68 -188 -174 -358 -596 -952 -370 -521 -418 -587 -418 -578 0 4
53 112 119 240 113 223 151 295 201 383 13 22 34 60 48 85 191 341 652 966
670 910 2 -6 -9 -45 -24 -88z m-1575 -2459 c-67 -131 -125 -242 -129 -248 -4
-5 -33 -59 -65 -120 -69 -130 -222 -393 -241 -416 -8 -8 -14 -18 -14 -21 0 -5
-129 -218 -380 -628 -189 -310 -248 -404 -264 -425 -15 -19 -16 -18 -5 10 28
78 445 897 530 1040 10 17 39 68 65 115 26 47 66 114 89 150 23 36 57 92 75
125 71 128 452 682 458 665 2 -5 -51 -117 -119 -247z m-1273 -2405 c12 -19
-117 -120 -133 -104 -8 8 17 108 33 134 l15 22 39 -20 c21 -11 42 -25 46 -32z"/>
</g>
</svg>
