<?xml version="1.0" encoding="UTF-8" standalone="no"?>
<svg
   xmlns:dc="http://purl.org/dc/elements/1.1/"
   xmlns:cc="http://creativecommons.org/ns#"
   xmlns:rdf="http://www.w3.org/1999/02/22-rdf-syntax-ns#"
   xmlns:svg="http://www.w3.org/2000/svg"
   xmlns="http://www.w3.org/2000/svg"
   xmlns:sodipodi="http://sodipodi.sourceforge.net/DTD/sodipodi-0.dtd"
   xmlns:inkscape="http://www.inkscape.org/namespaces/inkscape"
   width="13.5278in"
   height="4.88889in"
   viewBox="0 0 974 352"
   version="1.1"
   id="svg64"
   sodipodi:docname="brand_text.svg"
   inkscape:version="1.0.2 (e86c870, 2021-01-15)">
  <metadata
     id="metadata70">
    <rdf:RDF>
      <cc:Work
         rdf:about="">
        <dc:format>image/svg+xml</dc:format>
        <dc:type
           rdf:resource="http://purl.org/dc/dcmitype/StillImage" />
        <dc:title></dc:title>
      </cc:Work>
    </rdf:RDF>
  </metadata>
  <defs
     id="defs68">
    <filter
       style="color-interpolation-filters:sRGB;"
       inkscape:label="Silhouette"
       id="filter162">
      <feFlood
         flood-opacity="1"
         flood-color="rgb(0,0,0)"
         result="flood"
         id="feFlood156" />
      <feComposite
         in="flood"
         in2="SourceGraphic"
         operator="in"
         result="composite"
         id="feComposite158" />
      <feGaussianBlur
         stdDeviation="0.01"
         id="feGaussianBlur160" />
    </filter>
  </defs>
  <sodipodi:namedview
     pagecolor="#ffffff"
     bordercolor="#666666"
     borderopacity="1"
     objecttolerance="10"
     gridtolerance="10"
     guidetolerance="10"
     inkscape:pageopacity="0"
     inkscape:pageshadow="2"
     inkscape:window-width="1920"
     inkscape:window-height="1009"
     id="namedview66"
     showgrid="false"
     inkscape:zoom="1.3252032"
     inkscape:cx="649.33438"
     inkscape:cy="234.66671"
     inkscape:window-x="0"
     inkscape:window-y="34"
     inkscape:window-maximized="1"
     inkscape:current-layer="svg64" />
  <g
     id="g138"
     transform="translate(12.912204,-8.8346214)"
     style="filter:url(#filter162)">
    <path
       style="fill:#b9b9b9;fill-opacity:1;stroke-width:0.75"
       d="m 431.08152,245.67957 c -0.23101,-0.37378 0.44365,-0.67959 1.49925,-0.67959 2.29804,0 2.48368,0.42746 0.42001,0.96712 -0.82459,0.21563 -1.68825,0.0863 -1.91926,-0.28753 z m 23.52788,-1.94192 c 0.54141,-0.21665 1.18829,-0.19001 1.43751,0.0592 0.24921,0.24922 -0.19376,0.42648 -0.98438,0.39392 -0.87371,-0.036 -1.05142,-0.21371 -0.45313,-0.45312 z m 6.3424,-6.00741 c 0.72973,-0.19015 1.74223,-0.17765 2.25,0.0278 0.50777,0.20544 -0.0893,0.36102 -1.32677,0.34574 -1.2375,-0.0153 -1.65296,-0.18338 -0.92323,-0.37353 z m 66.36071,-2.25955 c 0.92812,-0.17877 2.44687,-0.17877 3.375,0 0.92812,0.17876 0.16875,0.32502 -1.6875,0.32502 -1.85625,0 -2.61562,-0.14626 -1.6875,-0.32502 z m 9.79687,0.017 c 0.54141,-0.21666 1.18829,-0.19002 1.4375,0.0592 0.24922,0.24922 -0.19375,0.42648 -0.98437,0.39392 -0.87371,-0.036 -1.05142,-0.21371 -0.45313,-0.45312 z m 25.09239,-0.007 c 0.72973,-0.19016 1.74223,-0.17766 2.25,0.0278 0.50778,0.20545 -0.0893,0.36103 -1.32677,0.34574 -1.2375,-0.0153 -1.65295,-0.18337 -0.92323,-0.37353 z m 13.1576,0.007 c 0.54141,-0.21666 1.18829,-0.19002 1.43751,0.0592 0.24921,0.24922 -0.19376,0.42648 -0.98438,0.39392 -0.87371,-0.036 -1.05142,-0.21371 -0.45313,-0.45312 z m -70.16154,-0.77586 c 1.14004,-0.17239 2.82754,-0.16778 3.75,0.0102 0.92245,0.17802 -0.0103,0.31907 -2.07281,0.31344 -2.0625,-0.006 -2.81724,-0.15129 -1.67719,-0.32367 z m 67.11467,-2.20852 c 0.51562,-0.20806 1.35937,-0.20806 1.875,0 0.51562,0.20806 0.0937,0.37829 -0.9375,0.37829 -1.03125,0 -1.45313,-0.17023 -0.9375,-0.37829 z m -164.24996,-0.75 c 0.51562,-0.20806 1.35937,-0.20806 1.875,0 0.51562,0.20806 0.0937,0.37829 -0.9375,0.37829 -1.03125,0 -1.45313,-0.17023 -0.9375,-0.37829 z m -14.20312,-2.26562 c 0.5414,-0.21666 1.18828,-0.19002 1.4375,0.0592 0.24922,0.24922 -0.19375,0.42648 -0.98437,0.39392 -0.87372,-0.036 -1.05143,-0.21371 -0.45313,-0.45312 z m 9,0 c 0.5414,-0.21666 1.18828,-0.19002 1.4375,0.0592 0.24922,0.24922 -0.19376,0.42648 -0.98438,0.39392 -0.87371,-0.036 -1.05142,-0.21371 -0.45312,-0.45312 z m 22.45312,-2.26697 c 0.92812,-0.17877 2.44687,-0.17877 3.37499,0 0.92813,0.17877 0.16875,0.32503 -1.6875,0.32503 -1.85624,0 -2.61562,-0.14626 -1.68749,-0.32503 z m 66.04685,0.0169 c 0.54141,-0.21665 1.18829,-0.19001 1.43751,0.0592 0.24921,0.24922 -0.19376,0.42648 -0.98438,0.39391 -0.87371,-0.036 -1.05142,-0.2137 -0.45313,-0.45312 z m 23.25,0 c 0.5414,-0.21665 1.18828,-0.19001 1.4375,0.0592 0.24922,0.24922 -0.19375,0.42648 -0.98437,0.39391 -0.87372,-0.036 -1.05143,-0.2137 -0.45313,-0.45312 z m 47.99999,0 c 0.5414,-0.21665 1.18828,-0.19001 1.4375,0.0592 0.24922,0.24922 -0.19376,0.42648 -0.98438,0.39391 -0.87371,-0.036 -1.05142,-0.2137 -0.45312,-0.45312 z m -62.99999,-3.75 c 0.5414,-0.21665 1.18829,-0.19001 1.4375,0.0592 0.24922,0.24922 -0.19375,0.42648 -0.98437,0.39391 -0.87371,-0.036 -1.05143,-0.2137 -0.45313,-0.45312 z m 4.45313,0.0156 c 0.51562,-0.20805 1.35937,-0.20805 1.875,0 0.51562,0.20806 0.0937,0.3783 -0.9375,0.3783 -1.03125,0 -1.45313,-0.17024 -0.9375,-0.3783 z m 35.25873,-0.78373 c 0.93293,-0.17939 2.28293,-0.17258 3,0.0152 0.71707,0.18772 -0.0463,0.3345 -1.69624,0.32617 -1.65,-0.008 -2.23669,-0.16191 -1.30376,-0.34131 z m 125.54714,-15.9695 c 0,-1.03125 0.17024,-1.45312 0.3783,-0.9375 0.20805,0.51563 0.20805,1.35937 0,1.875 -0.20806,0.51562 -0.3783,0.0937 -0.3783,-0.9375 z m -173.36837,-6.23468 c 0,-0.12908 1.09687,-1.22595 2.4375,-2.4375 l 2.4375,-2.20282 -2.20282,2.4375 c -2.05333,2.2721 -2.67218,2.78224 -2.67218,2.20282 z m 243.38025,-1.25673 c -0.26276,-0.42515 0.0383,-0.55088 0.70573,-0.29476 1.29932,0.49859 1.53705,1.03617 0.45822,1.03617 -0.38815,0 -0.91194,-0.33364 -1.16395,-0.74141 z M 246.3685,165.5 c 0,-1.03125 0.17023,-1.45313 0.37829,-0.9375 0.20806,0.51562 0.20806,1.35937 0,1.875 -0.20806,0.51562 -0.37829,0.0937 -0.37829,-0.9375 z m 91.80477,-20.46984 c 0.28165,-0.73967 0.70102,-1.15592 0.93194,-0.925 0.23092,0.23092 4.8e-4,0.83609 -0.51209,1.34485 -0.74071,0.73519 -0.82686,0.64905 -0.41985,-0.41985 z m 346.8267,-0.48589 c 0,-0.38816 0.33364,-0.91194 0.74141,-1.16396 0.42515,-0.26275 0.55088,0.0383 0.29476,0.70574 -0.49859,1.29931 -1.03617,1.53704 -1.03617,0.45822 z m -342.25175,-8.25283 c 1.14658,-2.03972 2.19399,-3.59928 2.32757,-3.46569 0.43461,0.4346 -3.10556,7.17426 -3.76845,7.17426 -0.35409,0 0.2943,-1.66886 1.44088,-3.70857 z m 346.90462,0.009 c 0.93371,-1.62236 1.802,-2.84539 1.92953,-2.71785 0.42249,0.42248 -2.34805,5.66759 -2.9937,5.66759 -0.34842,0 0.13045,-1.32738 1.06417,-2.94974 z"
       id="path152" />
    <path
       style="fill:#a3a3a3;fill-opacity:1;stroke-width:0.75"
       d="m 462.06253,244.50327 c 0.51562,-0.20806 1.35937,-0.20806 1.875,0 0.51562,0.20806 0.0937,0.37829 -0.9375,0.37829 -1.03125,0 -1.45313,-0.17023 -0.9375,-0.37829 z m 15.79687,-9.01562 c 0.5414,-0.21665 1.18828,-0.19001 1.4375,0.0592 0.24922,0.24921 -0.19376,0.42648 -0.98438,0.39391 -0.87371,-0.036 -1.05142,-0.2137 -0.45312,-0.45312 z m 81.74998,0 c 0.5414,-0.21665 1.18828,-0.19001 1.4375,0.0592 0.24922,0.24921 -0.19376,0.42648 -0.98438,0.39391 -0.87371,-0.036 -1.05142,-0.2137 -0.45312,-0.45312 z m 13.49999,0 c 0.54141,-0.21665 1.18829,-0.19001 1.43751,0.0592 0.24921,0.24921 -0.19376,0.42648 -0.98438,0.39391 -0.87371,-0.036 -1.05142,-0.2137 -0.45313,-0.45312 z m -3,-3 c 0.54141,-0.21665 1.18829,-0.19001 1.43751,0.0592 0.24921,0.24921 -0.19376,0.42648 -0.98438,0.39391 -0.87371,-0.036 -1.05142,-0.2137 -0.45313,-0.45312 z m 22.08844,-0.0259 c 1.14004,-0.1724 2.82754,-0.16779 3.75,0.0102 0.92245,0.17802 -0.0103,0.31906 -2.07282,0.31344 -2.0625,-0.006 -2.81723,-0.15129 -1.67718,-0.32368 z m -85.49602,-0.73156 c 0.72972,-0.19016 1.74222,-0.17765 2.25,0.0278 0.50777,0.20545 -0.0893,0.36103 -1.32678,0.34575 -1.23749,-0.0153 -1.65295,-0.18338 -0.92322,-0.37353 z m 94.90758,-2.24259 c 0.5414,-0.21665 1.18828,-0.19001 1.4375,0.0592 0.24922,0.24922 -0.19376,0.42648 -0.98438,0.39392 -0.87371,-0.036 -1.05142,-0.21371 -0.45312,-0.45312 z m 41.24999,-1.5 c 0.5414,-0.21665 1.18828,-0.19001 1.4375,0.0592 0.24922,0.24921 -0.19376,0.42648 -0.98438,0.39391 -0.87371,-0.036 -1.05142,-0.2137 -0.45312,-0.45312 z m -212.29683,-0.73435 c 0.51563,-0.20806 1.35938,-0.20806 1.875,0 0.51563,0.20805 0.0937,0.37829 -0.9375,0.37829 -1.03125,0 -1.45312,-0.17024 -0.9375,-0.37829 z m 86.24998,0 c 0.51563,-0.20806 1.35938,-0.20806 1.875,0 0.51563,0.20805 0.0937,0.37829 -0.9375,0.37829 -1.03125,0 -1.45312,-0.17024 -0.9375,-0.37829 z m -74.9531,-0.76563 c 0.5414,-0.21665 1.18828,-0.19001 1.4375,0.0592 0.24922,0.24922 -0.19376,0.42648 -0.98438,0.39391 -0.87371,-0.036 -1.05142,-0.2137 -0.45312,-0.45312 z m 89.2031,0.0156 c 0.51562,-0.20805 1.35937,-0.20805 1.875,0 0.51562,0.20806 0.0937,0.3783 -0.9375,0.3783 -1.03125,0 -1.45313,-0.17024 -0.9375,-0.3783 z m 11.29687,-0.0156 c 0.5414,-0.21665 1.18829,-0.19001 1.4375,0.0592 0.24922,0.24922 -0.19375,0.42648 -0.98437,0.39391 -0.87371,-0.036 -1.05143,-0.2137 -0.45313,-0.45312 z M 148.7501,216.20523 c 0,-0.16212 0.52378,-0.49575 1.16396,-0.74141 0.66744,-0.25612 0.96849,-0.13039 0.70573,0.29476 -0.44044,0.71265 -1.86969,1.05408 -1.86969,0.44665 z m 294.74993,0 c 0,-0.16212 0.52378,-0.49575 1.16396,-0.74141 0.66744,-0.25612 0.96849,-0.13039 0.70573,0.29476 -0.44044,0.71265 -1.86969,1.05408 -1.86969,0.44665 z m 66.0592,-14.39274 c 0.036,-0.87371 0.2137,-1.05142 0.45312,-0.45312 0.21665,0.5414 0.19001,1.18827 -0.0592,1.4375 -0.24922,0.24922 -0.42648,-0.19376 -0.39391,-0.98438 z m 39.74999,-10.49999 c 0.036,-0.87372 0.2137,-1.05143 0.45312,-0.45313 0.21665,0.5414 0.19001,1.18828 -0.0592,1.4375 -0.24922,0.24922 -0.42648,-0.19375 -0.39391,-0.98437 z M 229.8963,189.12499 c 0.0153,-1.2375 0.18337,-1.65295 0.37353,-0.92322 0.19015,0.72972 0.17765,1.74222 -0.0278,2.25 -0.20545,0.50777 -0.36103,-0.0893 -0.34574,-1.32678 z m 424.35368,-4.40816 c 0,-0.15574 0.59062,-0.74637 1.3125,-1.3125 1.18954,-0.93291 1.21607,-0.90638 0.28317,0.28317 -0.97978,1.24931 -1.59567,1.6466 -1.59567,1.02933 z M 145.80931,166.5625 c 0.036,-0.87371 0.21371,-1.05142 0.45313,-0.45313 0.21665,0.54141 0.19001,1.18828 -0.0592,1.43751 -0.24922,0.24921 -0.42648,-0.19376 -0.39392,-0.98438 z m 294.74993,0 c 0.036,-0.87371 0.21371,-1.05142 0.45312,-0.45313 0.21666,0.54141 0.19002,1.18828 -0.0592,1.43751 -0.24922,0.24921 -0.42648,-0.19376 -0.39392,-0.98438 z m 47.614,-5.78235 c 0.28164,-0.73966 0.70101,-1.15591 0.93193,-0.92499 0.23092,0.23091 4.8e-4,0.83609 -0.51208,1.34484 -0.74072,0.7352 -0.82686,0.64905 -0.41985,-0.41985 z"
       id="path150" />
    <path
       style="fill:#8c8c8c;fill-opacity:1;stroke-width:0.75"
       d="m 539.87501,260.74998 c 0.25494,-0.4125 0.61236,-0.75 0.79426,-0.75 0.18191,0 0.33074,0.3375 0.33074,0.75 0,0.4125 -0.35742,0.75 -0.79427,0.75 -0.43684,0 -0.58567,-0.3375 -0.33073,-0.75 z M 428.31253,245.25327 c 0.51563,-0.20806 1.35938,-0.20806 1.875,0 0.51563,0.20806 0.0937,0.37829 -0.9375,0.37829 -1.03125,0 -1.45312,-0.17023 -0.9375,-0.37829 z m 15.79688,-0.0156 c 0.5414,-0.21665 1.18828,-0.19001 1.4375,0.0592 0.24922,0.24921 -0.19376,0.42648 -0.98438,0.39391 -0.87371,-0.036 -1.05142,-0.2137 -0.45312,-0.45312 z m 42.74999,-9.75 c 0.5414,-0.21665 1.18828,-0.19001 1.4375,0.0592 0.24921,0.24922 -0.19376,0.42648 -0.98438,0.39391 -0.87371,-0.036 -1.05142,-0.2137 -0.45312,-0.45312 z m 83.99997,0 c 0.54141,-0.21665 1.18829,-0.19001 1.43751,0.0592 0.24921,0.24922 -0.19376,0.42648 -0.98438,0.39391 -0.87371,-0.036 -1.05142,-0.2137 -0.45313,-0.45312 z m 33.32812,-6.00466 c 0.72188,-0.18864 1.90313,-0.18864 2.625,0 0.72188,0.18865 0.13125,0.343 -1.3125,0.343 -1.44375,0 -2.03437,-0.15435 -1.3125,-0.343 z M 412.56254,228.7533 c 0.51562,-0.20806 1.35937,-0.20806 1.875,0 0.51562,0.20805 0.0937,0.37829 -0.9375,0.37829 -1.03125,0 -1.45313,-0.17024 -0.9375,-0.37829 z m 39.79686,-0.0156 c 0.54141,-0.21665 1.18829,-0.19001 1.43751,0.0592 0.24921,0.24922 -0.19376,0.42648 -0.98438,0.39392 -0.87371,-0.036 -1.05142,-0.21371 -0.45313,-0.45312 z m -8.24999,-2.25 c 0.5414,-0.21665 1.18828,-0.19001 1.4375,0.0592 0.24922,0.24922 -0.19376,0.42648 -0.98438,0.39392 -0.87371,-0.036 -1.05142,-0.21371 -0.45312,-0.45312 z m 83.9531,0.0156 c 0.51562,-0.20806 1.35937,-0.20806 1.875,0 0.51562,0.20806 0.0937,0.37829 -0.9375,0.37829 -1.03125,0 -1.45312,-0.17023 -0.9375,-0.37829 z m 17.625,-0.0405 c 1.13437,-0.17185 2.99062,-0.17185 4.12499,0 1.13438,0.17184 0.20625,0.31244 -2.06249,0.31244 -2.26875,0 -3.19688,-0.1406 -2.0625,-0.31244 z m 73.12498,0.0405 c 0.51562,-0.20806 1.35937,-0.20806 1.875,0 0.51562,0.20806 0.0937,0.37829 -0.9375,0.37829 -1.03125,0 -1.45313,-0.17023 -0.9375,-0.37829 z m 12.79687,-0.0156 c 0.5414,-0.21665 1.18828,-0.19001 1.4375,0.0592 0.24922,0.24922 -0.19375,0.42648 -0.98437,0.39392 -0.87372,-0.036 -1.05143,-0.21371 -0.45313,-0.45312 z m -101.29685,-2.98442 c 0.51562,-0.20806 1.35937,-0.20806 1.875,0 0.51562,0.20805 0.0937,0.37829 -0.9375,0.37829 -1.03125,0 -1.45313,-0.17024 -0.9375,-0.37829 z m 24.04687,-0.0156 c 0.5414,-0.21666 1.18828,-0.19002 1.4375,0.0592 0.24922,0.24922 -0.19375,0.42648 -0.98437,0.39392 -0.87372,-0.036 -1.05143,-0.21371 -0.45313,-0.45312 z m 14.99999,0 c 0.54141,-0.21666 1.18829,-0.19002 1.43751,0.0592 0.24921,0.24922 -0.19376,0.42648 -0.98438,0.39392 -0.87371,-0.036 -1.05142,-0.21371 -0.45313,-0.45312 z m -203.85932,-8.72237 c 0,-0.12908 1.09687,-1.22595 2.4375,-2.4375 l 2.4375,-2.20282 -2.20282,2.4375 c -2.05333,2.27209 -2.67218,2.78224 -2.67218,2.20282 z M 637.0592,184.5625 c 0.036,-0.87371 0.2137,-1.05143 0.45312,-0.45313 0.21665,0.5414 0.19001,1.18828 -0.0592,1.4375 -0.24922,0.24922 -0.42648,-0.19375 -0.39391,-0.98437 z m 98.19076,-15.59567 c 0,-0.15574 0.59062,-0.74636 1.3125,-1.3125 1.18954,-0.9329 1.21607,-0.90638 0.28317,0.28317 -0.97978,1.24931 -1.59567,1.64661 -1.59567,1.02933 z M 497.55923,162.8125 c 0.036,-0.87371 0.2137,-1.05142 0.45312,-0.45312 0.21665,0.5414 0.19001,1.18827 -0.0592,1.4375 -0.24921,0.24921 -0.42648,-0.19376 -0.39391,-0.98438 z"
       id="path148" />
    <path
       style="fill:#767676;fill-opacity:1;stroke-width:0.75"
       d="m 532.00001,258.95522 c 0,-0.16212 0.52378,-0.49575 1.16395,-0.74141 0.66744,-0.25612 0.96849,-0.13039 0.70574,0.29476 -0.44045,0.71265 -1.86969,1.05408 -1.86969,0.44665 z m -31.87499,-8.70524 c 0.25494,-0.4125 0.61236,-0.75 0.79426,-0.75 0.18191,0 0.33074,0.3375 0.33074,0.75 0,0.4125 -0.35742,0.75 -0.79427,0.75 -0.43684,0 -0.58567,-0.3375 -0.33073,-0.75 z m -14.76562,-3.51233 c 0.5414,-0.21665 1.18828,-0.19001 1.4375,0.0592 0.24921,0.24922 -0.19376,0.42648 -0.98438,0.39392 -0.87371,-0.036 -1.05142,-0.21371 -0.45312,-0.45312 z m -30.79687,-0.78022 c 1.34062,-0.16636 3.53437,-0.16636 4.875,0 1.34062,0.16637 0.24375,0.3025 -2.4375,0.3025 -2.68125,0 -3.77813,-0.13613 -2.4375,-0.3025 z m 5.29687,-1.46978 c 0.5414,-0.21665 1.18829,-0.19001 1.4375,0.0592 0.24922,0.24922 -0.19375,0.42648 -0.98437,0.39392 -0.87371,-0.036 -1.05143,-0.21371 -0.45313,-0.45312 z m 6.32813,-0.005 c 0.72187,-0.18864 1.90312,-0.18864 2.62499,0 0.72188,0.18865 0.13125,0.343 -1.3125,0.343 -1.44374,0 -2.03437,-0.15435 -1.31249,-0.343 z m -17.61626,-0.76345 c 0.93294,-0.17939 2.28294,-0.17258 3,0.0152 0.71707,0.18772 -0.0463,0.3345 -1.69624,0.32618 -1.65,-0.008 -2.23669,-0.16192 -1.30376,-0.34131 z m -3.71186,-4.48188 c 0.5414,-0.21666 1.18828,-0.19002 1.4375,0.0592 0.24921,0.24922 -0.19376,0.42648 -0.98438,0.39392 -0.87371,-0.036 -1.05142,-0.21371 -0.45312,-0.45312 z m -12,-0.75 c 0.5414,-0.21666 1.18828,-0.19002 1.4375,0.0592 0.24922,0.24922 -0.19375,0.42648 -0.98437,0.39392 -0.87372,-0.036 -1.05143,-0.21371 -0.45313,-0.45312 z m 28.2687,-1.74267 c 0.54961,-0.88928 2.38394,-0.98681 2.89858,-0.15411 0.20086,0.32499 -0.47275,0.66025 -1.49691,0.74501 -1.07344,0.0888 -1.6671,-0.16142 -1.40167,-0.5909 z m -219.31882,-1.9325 c 0.036,-0.87371 0.21371,-1.05142 0.45312,-0.45313 0.21666,0.54141 0.19002,1.18828 -0.0592,1.43751 -0.24923,0.24921 -0.42648,-0.19376 -0.39392,-0.98438 z m 290.80009,0.67517 c 0.54141,-0.21666 1.18829,-0.19002 1.43751,0.0592 0.24921,0.24922 -0.19376,0.42648 -0.98438,0.39392 -0.87371,-0.036 -1.05142,-0.21371 -0.45313,-0.45312 z m 34.84239,-0.007 c 0.72973,-0.19016 1.74223,-0.17766 2.25,0.0278 0.50777,0.20545 -0.0893,0.36103 -1.32677,0.34574 -1.2375,-0.0153 -1.65295,-0.18337 -0.92323,-0.37353 z m 31.11072,-2.97705 c 0.51563,-0.20805 1.35938,-0.20805 1.875,0 0.51563,0.20806 0.0937,0.3783 -0.9375,0.3783 -1.03125,0 -1.45312,-0.17024 -0.9375,-0.3783 z m 11.25874,-0.0337 c 0.93294,-0.17939 2.28294,-0.17258 3,0.0152 0.71707,0.18772 -0.0463,0.3345 -1.69624,0.32618 -1.65,-0.008 -2.23669,-0.16192 -1.30376,-0.34131 z m -98.24528,-0.7631 c 1.34801,-0.16692 3.37301,-0.16348 4.5,0.008 1.12698,0.17114 0.0241,0.3077 -2.45094,0.3035 -2.475,-0.005 -3.39708,-0.14423 -2.04906,-0.31115 z m 96.73654,-2.20315 c 0.51562,-0.20805 1.35937,-0.20805 1.875,0 0.51562,0.20806 0.0937,0.3783 -0.9375,0.3783 -1.03125,0 -1.45312,-0.17024 -0.9375,-0.3783 z m 37.13926,-1.52303 c 0.72973,-0.19015 1.74223,-0.17765 2.25,0.0278 0.50778,0.20545 -0.0893,0.36103 -1.32677,0.34574 -1.2375,-0.0153 -1.65295,-0.18337 -0.92323,-0.37353 z M 446.35941,226.4877 c 0.5414,-0.21665 1.18828,-0.19001 1.4375,0.0592 0.24921,0.24922 -0.19376,0.42648 -0.98438,0.39391 -0.87371,-0.036 -1.05142,-0.2137 -0.45312,-0.45312 z m 50.99998,0 c 0.5414,-0.21665 1.18829,-0.19001 1.4375,0.0592 0.24922,0.24922 -0.19375,0.42648 -0.98437,0.39391 -0.87371,-0.036 -1.05142,-0.2137 -0.45313,-0.45312 z m 54.70311,0.0156 c 0.51563,-0.20805 1.35938,-0.20805 1.875,0 0.51563,0.20806 0.0937,0.3783 -0.9375,0.3783 -1.03125,0 -1.45312,-0.17024 -0.9375,-0.3783 z m 71.23326,-0.0446 c 1.33142,-0.16568 3.69392,-0.1684 5.25,-0.006 1.55607,0.16236 0.46673,0.29792 -2.42077,0.30125 -2.8875,0.003 -4.16066,-0.12951 -2.82923,-0.29519 z m -105.34398,-2.22844 c 0.72973,-0.19016 1.74223,-0.17765 2.25,0.0278 0.50778,0.20545 -0.0893,0.36103 -1.32677,0.34575 -1.2375,-0.0153 -1.65295,-0.18338 -0.92323,-0.37353 z m 61.11072,-0.0228 c 1.34062,-0.16637 3.53437,-0.16637 4.875,0 1.34062,0.16637 0.24375,0.30249 -2.4375,0.30249 -2.68125,0 -3.77813,-0.13612 -2.4375,-0.30249 z m -27.75,-0.70416 c 0.51563,-0.20806 1.35938,-0.20806 1.875,0 0.51563,0.20805 0.0937,0.37829 -0.9375,0.37829 -1.03125,0 -1.45312,-0.17024 -0.9375,-0.37829 z m 13.875,-0.0203 c 0.72188,-0.18864 1.90313,-0.18864 2.625,0 0.72187,0.18865 0.13125,0.343 -1.3125,0.343 -1.44375,0 -2.03437,-0.15435 -1.3125,-0.343 z M 160.89631,200.37499 c 0.0153,-1.2375 0.18338,-1.65295 0.37353,-0.92323 0.19016,0.72973 0.17766,1.74223 -0.0278,2.25 -0.20545,0.50778 -0.36103,-0.0893 -0.34575,-1.32677 z m 294.74993,0 c 0.0153,-1.2375 0.18338,-1.65295 0.37353,-0.92323 0.19016,0.72973 0.17765,1.74223 -0.0278,2.25 -0.20545,0.50778 -0.36103,-0.0893 -0.34575,-1.32677 z m 108.66297,-6.06249 c 0.036,-0.87372 0.21371,-1.05143 0.45312,-0.45313 0.21666,0.5414 0.19002,1.18828 -0.0592,1.4375 -0.24922,0.24922 -0.42648,-0.19375 -0.39392,-0.98437 z m 129.37883,-0.79359 c -0.395,-1.02936 -0.28525,-1.07575 0.66976,-0.28317 1.30143,1.0801 1.43688,1.51425 0.47241,1.51425 -0.36837,0 -0.88234,-0.55398 -1.14217,-1.23108 z M 379.00005,177.125 c 0.96881,-1.03125 1.93022,-1.875 2.13647,-1.875 0.20625,0 -0.41766,0.84375 -1.38647,1.875 -0.96882,1.03125 -1.93023,1.875 -2.13648,1.875 -0.20625,0 0.41766,-0.84375 1.38648,-1.875 z"
       id="path146" />
    <path
       style="fill:#606060;fill-opacity:1;stroke-width:0.75"
       d="m 502.00002,250.99998 c 0.61875,-0.39987 1.4625,-0.72703 1.875,-0.72703 0.4125,0 0.24375,0.32716 -0.375,0.72703 -0.61875,0.39987 -1.4625,0.72703 -1.875,0.72703 -0.4125,0 -0.24375,-0.32716 0.375,-0.72703 z m -4.875,-1.5 c 0.25494,-0.4125 0.61236,-0.75 0.79426,-0.75 0.18191,0 0.33074,0.3375 0.33074,0.75 0,0.4125 -0.35742,0.75 -0.79427,0.75 -0.43684,0 -0.58567,-0.3375 -0.33073,-0.75 z m -29.01562,-2.76233 c 0.5414,-0.21665 1.18828,-0.19001 1.4375,0.0592 0.24922,0.24922 -0.19375,0.42648 -0.98437,0.39392 -0.87372,-0.036 -1.05143,-0.21371 -0.45313,-0.45312 z m -27.04687,-1.48438 c 0.51563,-0.20806 1.35938,-0.20806 1.875,0 0.51563,0.20806 0.0937,0.37829 -0.9375,0.37829 -1.03125,0 -1.45312,-0.17023 -0.9375,-0.37829 z m -2.95312,-2.26562 c 0.5414,-0.21665 1.18828,-0.19001 1.4375,0.0592 0.24922,0.24922 -0.19376,0.42648 -0.98438,0.39392 -0.87371,-0.036 -1.05142,-0.21371 -0.45312,-0.45312 z m 152.57808,-6.78895 c 1.95938,-0.1545 5.16563,-0.1545 7.125,0 1.95938,0.1545 0.35625,0.28091 -3.5625,0.28091 -3.91875,0 -5.52187,-0.12641 -3.5625,-0.28091 z m -38.57811,-0.71105 c 0.5414,-0.21665 1.18828,-0.19001 1.4375,0.0592 0.24922,0.24921 -0.19375,0.42648 -0.98437,0.39391 -0.87372,-0.036 -1.05143,-0.2137 -0.45313,-0.45312 z m 60.70311,0.0156 c 0.51562,-0.20806 1.35937,-0.20806 1.875,0 0.51562,0.20806 0.0937,0.37829 -0.9375,0.37829 -1.03125,0 -1.45313,-0.17023 -0.9375,-0.37829 z m -115.4531,-0.76562 c 0.5414,-0.21665 1.18829,-0.19001 1.4375,0.0592 0.24922,0.24922 -0.19375,0.42648 -0.98437,0.39392 -0.87371,-0.036 -1.05142,-0.21371 -0.45313,-0.45312 z m 17.9364,-0.029 c 1.33142,-0.16568 3.69392,-0.16841 5.25,-0.006 1.55607,0.16236 0.46672,0.29791 -2.42078,0.30124 -2.8875,0.003 -4.16065,-0.12951 -2.82922,-0.29519 z m 28.15599,0.0215 c 0.72973,-0.19015 1.74223,-0.17765 2.25,0.0278 0.50777,0.20545 -0.0893,0.36103 -1.32677,0.34574 -1.2375,-0.0153 -1.65296,-0.18337 -0.92323,-0.37353 z m 38.98572,-1.49721 c 0.72187,-0.18864 1.90312,-0.18864 2.625,0 0.72187,0.18864 0.13125,0.34299 -1.3125,0.34299 -1.44375,0 -2.03438,-0.15435 -1.3125,-0.34299 z m -17.57812,-0.74534 c 0.5414,-0.21665 1.18828,-0.19001 1.4375,0.0592 0.24922,0.24921 -0.19376,0.42648 -0.98438,0.39391 -0.87371,-0.036 -1.05142,-0.2137 -0.45312,-0.45312 z m -63.04686,-0.73438 c 0.51562,-0.20805 1.35937,-0.20805 1.875,0 0.51562,0.20806 0.0937,0.3783 -0.9375,0.3783 -1.03125,0 -1.45313,-0.17024 -0.9375,-0.3783 z m 27.04686,-0.0156 c 0.54141,-0.21665 1.18829,-0.19001 1.43751,0.0592 0.24921,0.24922 -0.19376,0.42648 -0.98438,0.39391 -0.87371,-0.036 -1.05142,-0.2137 -0.45313,-0.45312 z m 120.25902,-1.73769 c 0,-1.03125 0.17023,-1.45312 0.37829,-0.9375 0.20806,0.51563 0.20806,1.35938 0,1.875 -0.20806,0.51563 -0.37829,0.0937 -0.37829,-0.9375 z m -238.75899,-1.26233 c 0.54141,-0.21665 1.18829,-0.19001 1.43751,0.0592 0.24921,0.24921 -0.19376,0.42648 -0.98438,0.39391 -0.87371,-0.036 -1.05142,-0.2137 -0.45313,-0.45312 z m 187.49996,0 c 0.5414,-0.21665 1.18828,-0.19001 1.4375,0.0592 0.24922,0.24921 -0.19376,0.42648 -0.98437,0.39391 -0.87372,-0.036 -1.05143,-0.2137 -0.45313,-0.45312 z m -161.99996,-1.5 c 0.5414,-0.21665 1.18828,-0.19001 1.4375,0.0592 0.24922,0.24922 -0.19376,0.42648 -0.98438,0.39391 -0.87371,-0.036 -1.05142,-0.2137 -0.45312,-0.45312 z m 67.49998,-0.75 c 0.5414,-0.21665 1.18829,-0.19001 1.4375,0.0592 0.24922,0.24922 -0.19375,0.42648 -0.98437,0.39391 -0.87371,-0.036 -1.05143,-0.2137 -0.45313,-0.45312 z m 4.5,0 c 0.5414,-0.21665 1.18828,-0.19001 1.4375,0.0592 0.24922,0.24922 -0.19375,0.42648 -0.98437,0.39391 -0.87372,-0.036 -1.05143,-0.2137 -0.45313,-0.45312 z m -23.99999,-2.25 c 0.5414,-0.21665 1.18828,-0.19001 1.4375,0.0592 0.24922,0.24922 -0.19376,0.42648 -0.98438,0.39391 -0.87371,-0.036 -1.05142,-0.2137 -0.45312,-0.45312 z m 11.99999,0 c 0.54141,-0.21665 1.18829,-0.19001 1.4375,0.0592 0.24922,0.24922 -0.19375,0.42648 -0.98437,0.39391 -0.87371,-0.036 -1.05142,-0.2137 -0.45313,-0.45312 z m 27.75,0 c 0.5414,-0.21665 1.18828,-0.19001 1.4375,0.0592 0.24922,0.24922 -0.19376,0.42648 -0.98438,0.39391 -0.87371,-0.036 -1.05142,-0.2137 -0.45312,-0.45312 z m 3,0 c 0.5414,-0.21665 1.18828,-0.19001 1.4375,0.0592 0.24921,0.24922 -0.19376,0.42648 -0.98438,0.39391 -0.87371,-0.036 -1.05142,-0.2137 -0.45312,-0.45312 z M 307.80928,201.81249 c 0.036,-0.87371 0.2137,-1.05142 0.45312,-0.45312 0.21665,0.5414 0.19001,1.18827 -0.0592,1.4375 -0.24922,0.24922 -0.42648,-0.19376 -0.39391,-0.98438 z m 394.4999,-4.5 c 0.036,-0.87371 0.2137,-1.05142 0.45312,-0.45312 0.21665,0.5414 0.19001,1.18827 -0.0592,1.4375 -0.24921,0.24922 -0.42648,-0.19376 -0.39391,-0.98438 z m -224.16295,-2.1875 c 0.0153,-1.2375 0.18338,-1.65295 0.37353,-0.92322 0.19016,0.72972 0.17766,1.74222 -0.0278,2.24999 -0.20545,0.50778 -0.36103,-0.0893 -0.34574,-1.32677 z m 127.32242,-3.5625 c 1.83901,-1.95937 3.44213,-3.5625 3.5625,-3.5625 0.56316,0 -0.0322,0.67338 -3.34366,3.78135 l -3.5625,3.34365 z m -293.82237,-0.1875 c 0.0153,-1.2375 0.18337,-1.65295 0.37353,-0.92322 0.19015,0.72972 0.17765,1.74222 -0.0278,2.25 -0.20545,0.50777 -0.36103,-0.0893 -0.34574,-1.32678 z m 60.97877,-2.625 c 2.03149,-2.0625 3.86236,-3.75 4.06861,-3.75 0.20625,0 -1.28713,1.6875 -3.31861,3.75 -2.03149,2.0625 -3.86237,3.75 -4.06862,3.75 -0.20625,0 1.28713,-1.6875 3.31862,-3.75 z m 286.18414,1.06251 c 0.036,-0.87372 0.21371,-1.05143 0.45312,-0.45313 0.21665,0.5414 0.19001,1.18828 -0.0592,1.4375 -0.24922,0.24922 -0.42648,-0.19375 -0.39392,-0.98437 z m -346.44071,-3.31251 c 0,-1.03125 0.17024,-1.45312 0.37829,-0.9375 0.20806,0.51563 0.20806,1.35938 0,1.875 -0.20805,0.51563 -0.37829,0.0937 -0.37829,-0.9375 z M 147.30931,174.8125 c 0.036,-0.87371 0.21371,-1.05142 0.45313,-0.45313 0.21665,0.5414 0.19001,1.18828 -0.0592,1.4375 -0.24922,0.24922 -0.42648,-0.19375 -0.39392,-0.98437 z m 294.74993,0 c 0.036,-0.87371 0.21371,-1.05142 0.45312,-0.45313 0.21666,0.5414 0.19002,1.18828 -0.0592,1.4375 -0.24922,0.24922 -0.42648,-0.19375 -0.39392,-0.98437 z m 341.05008,-51.07482 c 0.5414,-0.21666 1.18829,-0.19002 1.4375,0.0592 0.24922,0.24923 -0.19375,0.42648 -0.98437,0.39392 -0.87371,-0.036 -1.05143,-0.21371 -0.45313,-0.45312 z"
       id="path144" />
    <path
       style="fill:#494949;fill-opacity:1;stroke-width:0.75"
       d="m 534.85938,258.73765 c 0.54141,-0.21666 1.18829,-0.19002 1.43751,0.0592 0.24921,0.24922 -0.19376,0.42648 -0.98438,0.39392 -0.87371,-0.036 -1.05142,-0.21371 -0.45313,-0.45312 z m -6.60937,-0.53243 c 0,-0.16212 0.52378,-0.49575 1.16395,-0.74141 0.66744,-0.25612 0.96849,-0.13039 0.70574,0.29476 -0.44045,0.71265 -1.86969,1.05408 -1.86969,0.44665 z m -21.37499,-6.45524 c 0.25494,-0.4125 0.61235,-0.75 0.79426,-0.75 0.1819,0 0.33073,0.3375 0.33073,0.75 0,0.4125 -0.35742,0.75 -0.79426,0.75 -0.43684,0 -0.58567,-0.3375 -0.33073,-0.75 z m -20.01562,-2.76233 c 0.5414,-0.21665 1.18828,-0.19001 1.4375,0.0592 0.24921,0.24922 -0.19376,0.42648 -0.98438,0.39392 -0.87371,-0.036 -1.05142,-0.21371 -0.45312,-0.45312 z m -9.75,-1.5 c 0.5414,-0.21665 1.18828,-0.19001 1.4375,0.0592 0.24922,0.24922 -0.19376,0.42648 -0.98438,0.39392 -0.87371,-0.036 -1.05142,-0.21371 -0.45312,-0.45312 z m -45.60937,-3.52523 c 0,-0.15817 0.84375,-0.44886 1.875,-0.646 1.03125,-0.19714 1.875,-0.0677 1.875,0.28756 0,0.3553 -0.84375,0.646 -1.875,0.646 -1.03125,0 -1.875,-0.1294 -1.875,-0.28756 z m 9.5625,-0.20915 c 0.51563,-0.20806 1.35938,-0.20806 1.875,0 0.51563,0.20806 0.0937,0.37829 -0.9375,0.37829 -1.03125,0 -1.45312,-0.17023 -0.9375,-0.37829 z m 113.29685,-8.26562 c 0.5414,-0.21665 1.18828,-0.19001 1.4375,0.0592 0.24922,0.24921 -0.19375,0.42648 -0.98437,0.39391 -0.87372,-0.036 -1.05143,-0.2137 -0.45313,-0.45312 z m -13.5,-0.75 c 0.5414,-0.21665 1.18829,-0.19001 1.4375,0.0592 0.24922,0.24921 -0.19375,0.42648 -0.98437,0.39391 -0.87371,-0.036 -1.05143,-0.2137 -0.45313,-0.45312 z m 21,0 c 0.5414,-0.21665 1.18828,-0.19001 1.4375,0.0592 0.24922,0.24921 -0.19376,0.42648 -0.98438,0.39391 -0.87371,-0.036 -1.05142,-0.2137 -0.45312,-0.45312 z m -88.90758,-1.50741 c 0.72972,-0.19015 1.74222,-0.17765 2.25,0.0278 0.50777,0.20544 -0.0893,0.36102 -1.32678,0.34574 -1.2375,-0.0153 -1.65295,-0.18338 -0.92322,-0.37353 z m 103.49601,-0.0185 c 1.14005,-0.17239 2.82754,-0.16778 3.75,0.0102 0.92245,0.17802 -0.0103,0.31907 -2.07281,0.31344 -2.0625,-0.006 -2.81723,-0.15129 -1.67719,-0.32368 z m 10.16156,0.0259 c 0.5414,-0.21666 1.18829,-0.19002 1.4375,0.0592 0.24922,0.24922 -0.19375,0.42648 -0.98437,0.39392 -0.87371,-0.036 -1.05143,-0.21371 -0.45313,-0.45312 z m -99.74997,-0.75 c 0.5414,-0.21666 1.18828,-0.19002 1.4375,0.0592 0.24921,0.24922 -0.19376,0.42648 -0.98438,0.39392 -0.87371,-0.036 -1.05142,-0.21371 -0.45312,-0.45312 z m 56.57811,-0.0341 c 1.54687,-0.16181 4.07812,-0.16181 5.62499,0 1.54688,0.16181 0.28125,0.29419 -2.81249,0.29419 -3.09375,0 -4.35938,-0.13238 -2.8125,-0.29419 z m 18.37499,0.0496 c 0.51563,-0.20806 1.35938,-0.20806 1.875,0 0.51563,0.20805 0.0937,0.37829 -0.9375,0.37829 -1.03125,0 -1.45312,-0.17024 -0.9375,-0.37829 z M 403.20181,231.7301 c 0.72973,-0.19015 1.74223,-0.17765 2.25,0.0278 0.50777,0.20545 -0.0893,0.36103 -1.32677,0.34574 -1.2375,-0.0153 -1.65295,-0.18337 -0.92323,-0.37353 z m -2.59239,-1.49259 c 0.5414,-0.21665 1.18828,-0.19001 1.4375,0.0592 0.24922,0.24922 -0.19376,0.42648 -0.98438,0.39391 -0.87371,-0.036 -1.05142,-0.2137 -0.45312,-0.45312 z m 212.24994,-1.49999 c 0.54141,-0.21666 1.18829,-0.19002 1.43751,0.0592 0.24921,0.24922 -0.19376,0.42648 -0.98438,0.39391 -0.87371,-0.036 -1.05142,-0.2137 -0.45313,-0.45311 z m -174.74995,-1.5 c 0.5414,-0.21666 1.18828,-0.19002 1.4375,0.0592 0.24922,0.24922 -0.19376,0.42648 -0.98438,0.39392 -0.87371,-0.036 -1.05142,-0.21371 -0.45312,-0.45312 z m 142.49996,0 c 0.5414,-0.21666 1.18829,-0.19002 1.4375,0.0592 0.24922,0.24922 -0.19375,0.42648 -0.98437,0.39392 -0.87371,-0.036 -1.05143,-0.21371 -0.45313,-0.45312 z m -131.29684,-0.73437 c 0.51562,-0.20806 1.35937,-0.20806 1.875,0 0.51562,0.20805 0.0937,0.37829 -0.9375,0.37829 -1.03125,0 -1.45313,-0.17024 -0.9375,-0.37829 z m 4.13927,-0.023 c 0.72973,-0.19015 1.74223,-0.17765 2.25,0.0278 0.50777,0.20544 -0.0893,0.36102 -1.32677,0.34574 -1.2375,-0.0153 -1.65296,-0.18338 -0.92323,-0.37353 z m 56.99999,0 c 0.72972,-0.19015 1.74222,-0.17765 2.25,0.0278 0.50777,0.20544 -0.0893,0.36102 -1.32678,0.34574 -1.2375,-0.0153 -1.65295,-0.18338 -0.92322,-0.37353 z m 10.1576,0.007 c 0.5414,-0.21665 1.18828,-0.19001 1.4375,0.0592 0.24922,0.24921 -0.19376,0.42648 -0.98438,0.39391 -0.87371,-0.036 -1.05142,-0.2137 -0.45312,-0.45312 z m 38.99999,0 c 0.5414,-0.21665 1.18828,-0.19001 1.4375,0.0592 0.24922,0.24921 -0.19376,0.42648 -0.98438,0.39391 -0.87371,-0.036 -1.05142,-0.2137 -0.45312,-0.45312 z m -73.15759,-2.25741 c 0.72973,-0.19015 1.74223,-0.17765 2.25,0.0278 0.50777,0.20544 -0.0893,0.36102 -1.32677,0.34574 -1.2375,-0.0153 -1.65295,-0.18338 -0.92323,-0.37353 z m 18.54823,0.23208 c 0,-0.64995 3.72599,-0.93961 4.63901,-0.36064 0.6285,0.39855 -0.0337,0.6294 -1.82652,0.63672 -1.54687,0.006 -2.81249,-0.11792 -2.81249,-0.27608 z m 16.35937,-0.22477 c 0.5414,-0.21665 1.18828,-0.19001 1.4375,0.0592 0.24922,0.24922 -0.19376,0.42648 -0.98438,0.39391 -0.87371,-0.036 -1.05142,-0.2137 -0.45312,-0.45312 z m 51.32811,-0.005 c 0.72187,-0.18864 1.90312,-0.18864 2.625,0 0.72187,0.18865 0.13125,0.343 -1.3125,0.343 -1.44375,0 -2.03438,-0.15435 -1.3125,-0.343 z m -37.48572,-0.75274 c 0.72973,-0.19016 1.74223,-0.17765 2.25,0.0278 0.50777,0.20545 -0.0893,0.36103 -1.32677,0.34575 -1.2375,-0.0153 -1.65296,-0.18338 -0.92323,-0.37353 z m 10.86947,-0.0107 c 0.93293,-0.17939 2.28293,-0.17258 3,0.0151 0.71707,0.18772 -0.0463,0.3345 -1.69624,0.32618 -1.65,-0.008 -2.23669,-0.16192 -1.30376,-0.34131 z M 512.60744,209.0824 c -0.62569,-0.39646 -0.72816,-0.82363 -0.26609,-1.10921 0.41332,-0.25545 0.94501,0.0399 1.18154,0.65625 0.49697,1.29509 0.45016,1.31825 -0.91545,0.45296 z m -204.73896,-4.58241 c 0,-1.03125 0.17024,-1.45312 0.37829,-0.9375 0.20806,0.51563 0.20806,1.35938 0,1.875 -0.20805,0.51563 -0.37829,0.0937 -0.37829,-0.9375 z m 404.88148,-1.78317 c 0,-0.15574 0.59063,-0.74636 1.3125,-1.3125 1.18955,-0.9329 1.21608,-0.90637 0.28317,0.28317 -0.97977,1.24931 -1.59567,1.64661 -1.59567,1.02933 z M 468.30924,195.0625 c 0.036,-0.87372 0.2137,-1.05143 0.45312,-0.45313 0.21665,0.5414 0.19001,1.18828 -0.0592,1.4375 -0.24922,0.24922 -0.42648,-0.19376 -0.39391,-0.98437 z m 225.31573,0.43749 c -0.25494,-0.4125 0.0826,-0.75 0.75,-0.75 0.66744,0 1.00494,0.3375 0.75,0.75 -0.25494,0.4125 -0.59244,0.75 -0.75,0.75 -0.15756,0 -0.49506,-0.3375 -0.75,-0.75 z m 31.9342,-1.18749 c 0.036,-0.87372 0.21371,-1.05143 0.45312,-0.45313 0.21666,0.5414 0.19002,1.18828 -0.0592,1.4375 -0.24922,0.24922 -0.42648,-0.19375 -0.39392,-0.98437 z m -211.88594,-2.78235 c 0.28165,-0.73967 0.70102,-1.15592 0.93194,-0.925 0.23091,0.23092 4.8e-4,0.83609 -0.51209,1.34485 -0.74071,0.73519 -0.82686,0.64905 -0.41985,-0.41985 z m 1.27908,-3.4782 c 0.06,-0.79642 0.36178,-1.29186 0.67064,-1.10098 0.30885,0.19088 0.37143,0.8425 0.13907,1.44805 -0.58592,1.52688 -0.93945,1.37535 -0.80971,-0.34707 z m 3.5477,-7.50769 c 0,-0.38815 0.33364,-0.91194 0.74141,-1.16395 0.42515,-0.26276 0.55088,0.0383 0.29476,0.70573 -0.49859,1.29932 -1.03617,1.53704 -1.03617,0.45822 z m 135.74997,-1.07743 c 0,-0.15574 0.59062,-0.74637 1.3125,-1.3125 1.18954,-0.93291 1.21607,-0.90638 0.28317,0.28317 -0.97978,1.24931 -1.59567,1.64661 -1.59567,1.02933 z M 221.61806,166.625 c -0.002,-0.4125 0.45104,-1.93125 1.00703,-3.375 0.55598,-1.44375 1.02133,-2.11875 1.03411,-1.5 0.0128,0.61875 -0.44039,2.1375 -1.00703,3.375 -0.56664,1.2375 -1.03199,1.9125 -1.03411,1.5 z m 552.25689,-38.62499 c 0.74662,-0.825 1.52623,-1.5 1.73248,-1.5 0.20625,0 -0.23586,0.675 -0.98248,1.5 -0.74662,0.825 -1.52624,1.5 -1.73249,1.5 -0.20625,0 0.23587,-0.675 0.98249,-1.5 z m -418.06569,-10.1875 c 0.036,-0.87371 0.21371,-1.05142 0.45312,-0.45312 0.21666,0.5414 0.19002,1.18828 -0.0592,1.4375 -0.24922,0.24921 -0.42648,-0.19376 -0.39392,-0.98438 z"
       id="path142" />
    <path
       style="fill:#333333;fill-opacity:1;stroke-width:0.75"
       d="m 530.35001,257.59998 c 0.7,-0.7 1.1,-0.7 1.8,0 0.7,0.7 0.5,0.9 -0.9,0.9 -1.4,0 -1.6,-0.2 -0.9,-0.9 z m -6.006,-0.64245 c -0.70456,-0.41076 -3.23581,-1.10668 -5.625,-1.54649 -4.03998,-0.74369 -6.68526,-1.9448 -5.93515,-2.6949 0.17605,-0.17605 0.94357,0.0121 1.70562,0.418 0.76204,0.40596 3.74803,1.31998 6.63553,2.03116 5.90267,1.45381 8.46722,2.53906 6,2.53906 -0.825,0 -2.07645,-0.33607 -2.781,-0.74683 z m -20.46899,-5.20755 c -1.24987,-0.53708 -1.08615,-0.65336 0.98176,-0.69728 1.47458,-0.0313 2.29365,0.25165 2.01824,0.69728 -0.54037,0.87433 -0.96532,0.87433 -3,0 z m 5.07677,0.23026 c 0.72972,-0.19016 1.74222,-0.17766 2.25,0.0278 0.50777,0.20545 -0.0893,0.36103 -1.32678,0.34574 -1.2375,-0.0153 -1.65295,-0.18337 -0.92322,-0.37353 z m -159.77156,-1.81285 c -6.27842,-3.10777 -7.97914,-9.11477 -4.36837,-15.4293 3.68299,-6.44081 11.54358,-15.89658 20.77266,-24.9881 l 9.51686,-9.375 1.98713,-6.75 c 1.09293,-3.7125 2.47438,-8.23862 3.06989,-10.05805 0.59551,-1.81942 0.93172,-3.16942 0.74712,-3 -0.18461,0.16943 -4.31698,4.20933 -9.18305,8.97756 -7.62042,7.46717 -9.48218,8.89736 -13.42442,10.3125 -5.94717,2.13483 -6.72414,2.08224 -9.44587,-0.6395 -2.10488,-2.10487 -2.25607,-2.60093 -1.9431,-6.375 0.18666,-2.25087 0.26669,-4.09251 0.17784,-4.09251 -0.0889,0 -1.40328,2.0845 -2.92094,4.63221 -4.25836,7.14853 -12.75481,18.10916 -16.98857,21.91568 -2.10112,1.88909 -5.17832,3.8416 -6.83822,4.33891 -2.63984,0.79092 -3.35923,0.72153 -5.74107,-0.55379 -1.72812,-0.9253 -3.35898,-2.69115 -4.46353,-4.83301 -1.60342,-3.10924 -1.71537,-4.08371 -1.42164,-12.375 0.28511,-8.04828 1.45882,-15.22182 3.55055,-21.70054 0.39077,-1.2103 0.57342,-2.3376 0.4059,-2.50512 -0.16752,-0.16751 -2.13294,1.07585 -4.36761,2.76305 -2.23467,1.68719 -4.39483,3.06762 -4.80036,3.06762 -0.40553,0 -2.39879,1.18125 -4.42945,2.62499 -2.03066,1.44375 -4.01122,2.625 -4.40123,2.625 -0.39001,0 -4.60984,4.05709 -9.37739,9.01575 -4.76756,4.95866 -9.24174,9.00866 -9.94262,9 -1.54864,-0.0191 -4.79152,-4.11994 -5.49858,-6.95325 -0.45665,-1.82989 -0.30694,-2.0625 1.32744,-2.0625 1.88048,0 5.94853,-3.85615 13.45857,-12.75752 C 291.52793,176.8263 297.61031,161 293.85899,161 c -3.84399,0 -11.78911,8.91774 -21.84196,24.51581 -2.34277,3.63505 -4.65434,6.94668 -5.13681,7.35918 -1.63502,1.39788 -8.69677,14.71967 -10.46872,19.74891 -0.96912,2.7506 -2.66629,10.06359 -3.7715,16.25108 -1.10521,6.1875 -2.16138,12.02383 -2.34705,12.96962 -0.54177,2.7598 -2.42265,2.87175 -4.997,0.29741 -1.94122,-1.94123 -2.37087,-3.02983 -2.63196,-6.66848 -0.37086,-5.16872 2.2822,-20.88007 4.29377,-25.42755 0.76383,-1.72677 1.62114,-4.27163 1.90512,-5.65528 0.284,-1.38364 1.34037,-5.17826 2.34749,-8.4325 1.00712,-3.25423 1.70073,-6.04718 1.54135,-6.20657 -0.15939,-0.15939 -1.73107,1.57838 -3.49263,3.86169 -7.04325,9.12935 -11.50847,10.91955 -15.72405,6.30408 -2.40248,-2.63037 -3.03496,-4.9527 -3.03496,-11.14374 0,-3.90138 1.65305,-10.31315 3.60032,-13.96479 1.4391,-2.69869 3.91473,-9.54383 3.57463,-9.88392 -0.18685,-0.18685 -1.45577,1.28096 -2.81983,3.26178 -1.36407,1.98083 -3.57413,4.84001 -4.91124,6.35374 -1.33712,1.51371 -3.90263,5.41449 -5.70112,8.66837 -1.79849,3.25389 -3.85146,6.03011 -4.56217,6.16939 -2.20653,0.43244 -4.18058,-2.06489 -4.18058,-5.28873 0,-1.61042 0.26552,-2.76393 0.59004,-2.56336 0.32453,0.20056 1.66661,-2.70785 2.98241,-6.46314 2.68544,-7.66428 2.01991,-8.09066 -0.87544,-0.56086 -1.03053,2.68007 -1.87732,4.19786 -1.88173,3.37286 -0.005,-0.825 1.51479,-5.04375 3.37604,-9.375 2.93989,-6.84132 3.61554,-7.61986 2.17587,-2.50718 -0.21407,0.7602 0.12634,0.27702 0.75646,-1.07374 1.12646,-2.41472 0.8402,-6.46168 -0.42541,-6.01424 -2.03264,0.71861 -8.46382,10.99441 -14.08375,22.50311 -4.09472,8.38532 -6.90464,13.29299 -7.61449,13.29906 -1.85911,0.0159 -4.77407,-2.67973 -5.62243,-5.1994 l -0.79625,-2.36489 -2.46779,3.43634 c -1.35728,1.88998 -3.4444,3.94135 -4.63804,4.55861 -1.94132,1.00389 -2.48888,0.99479 -5.19079,-0.0863 -3.58058,-1.43266 -7.53469,-6.39145 -7.53469,-9.44913 0,-1.15623 -0.2182,-2.10224 -0.48487,-2.10224 -0.26668,0 -2.20731,1.12134 -4.3125,2.49185 -2.1052,1.37053 -4.99495,3.15318 -6.42168,3.96147 l -2.59404,1.46959 0.18652,6.72604 c 0.20908,7.53967 -0.46847,10.58955 -3.24144,14.59094 -3.55837,5.13474 -9.76053,7.41065 -16.42477,6.02717 -4.93539,-1.02458 -7.56909,-3.29042 -8.69809,-7.48317 -0.76724,-2.84935 -0.66645,-3.43525 1.11349,-6.47249 2.00671,-3.42419 7.00948,-7.83354 13.31488,-11.7355 3.85059,-2.38284 4.43276,-4.19644 2.75727,-8.58958 -0.7226,-1.89468 -1.60026,-7.25281 -2.71582,-16.58016 -0.47214,-3.94764 0.74424,-7.07954 3.72307,-9.58605 2.51628,-2.11731 5.54601,-2.20509 6.80282,-0.19709 0.57631,0.92076 0.4126,2.06528 -0.62432,4.36475 -1.27557,2.8287 -1.31974,3.6491 -0.478,8.87699 1.80637,11.21892 2.55233,14.3849 3.38256,14.35616 0.46196,-0.016 4.15696,-1.9604 8.21112,-4.32089 l 7.37121,-4.29183 1.62879,-4.8666 c 1.9959,-5.96347 3.94207,-7.29647 8.48134,-5.80922 3.56964,1.16957 3.95118,2.77784 1.44006,6.0701 -2.31471,3.03473 -5.80566,12.8609 -5.50583,15.49751 0.37441,3.29242 2.96919,2.76188 8.19323,-1.67522 4.37789,-3.71841 4.84939,-4.42528 6.40788,-9.60676 2.35081,-7.81568 5.49567,-14.21801 6.98397,-14.21801 1.35406,0 4.50314,3.84163 4.50314,5.49349 0,0.57982 -0.67724,1.9152 -1.50498,2.9675 -1.90337,2.41973 -4.6618,11.24255 -4.34583,13.90006 0.19226,1.61691 1.14458,0.16573 4.8306,-7.36105 5.18522,-10.58809 12.44128,-21.55507 15.32217,-23.15828 2.83544,-1.57793 5.74148,-0.57576 7.2001,2.483 1.18142,2.47747 1.13949,2.72098 -1.83704,10.66781 -4.84025,12.92266 -5.1794,15.82918 -0.92704,7.94497 2.71998,-5.04306 9.05244,-13.19417 11.46003,-14.75131 5.09684,-3.29643 8.80198,-1.47737 8.80198,4.3214 0,3.56771 -1.64058,8.85764 -5.64384,18.19819 -2.74178,6.39722 -3.57612,13.04421 -1.63732,13.04421 1.20071,0 5.06736,-4.02189 13.83713,-14.39265 6.12112,-7.23857 7.00044,-8.67514 9.04923,-14.78395 1.24811,-3.72147 2.08651,-7.46524 1.86312,-8.3195 -0.48928,-1.87101 1.66314,-4.50389 3.682,-4.50389 2.63722,0 5.09967,3.35153 5.09967,6.94091 0,1.7925 -0.29535,3.57971 -0.65634,3.97159 -0.8719,0.94648 -10.8427,31.08845 -10.4228,31.50835 0.17979,0.17979 0.80516,-0.60074 1.38971,-1.73449 4.29536,-8.33095 20.66058,-32.68975 25.57453,-38.06641 4.2448,-4.64448 5.84144,-5.3723 8.95556,-4.0824 2.52333,1.0452 3.78795,3.15594 5.16038,8.61303 0.81893,3.25628 0.77219,4.38563 -0.33981,8.21079 -0.70915,2.43937 -2.27789,6.39348 -3.48609,8.78692 -1.20821,2.39343 -1.99956,4.35171 -1.75857,4.35171 0.24099,0 1.88154,-0.99307 3.64566,-2.20682 1.76412,-1.21375 4.15401,-2.44438 5.31089,-2.73473 1.15687,-0.29036 3.20734,-1.23791 4.55661,-2.10569 2.23009,-1.43426 2.91168,-2.90795 7.49386,-16.20276 5.15393,-14.95365 11.22829,-28.60655 15.58303,-35.0248 1.34348,-1.9801 3.32273,-5.11894 4.39833,-6.97519 1.0756,-1.85625 3.28516,-4.80937 4.91012,-6.5625 3.68677,-3.97752 6.47066,-4.25212 10.11058,-0.9973 2.39445,2.14113 2.44933,2.33018 2.44933,8.4375 0,6.22008 -0.0221,6.29141 -5.08567,16.3723 -2.79712,5.56875 -6.50962,12.15886 -8.25,14.64469 -1.74037,2.48583 -5.27491,7.71708 -7.8545,11.625 -2.5796,3.90791 -6.04603,8.96155 -7.7032,11.2303 -4.4417,6.08098 -8.04728,19.47433 -8.17329,30.36073 -0.0505,4.35899 0.26515,8.59229 0.70135,9.40735 1.41204,2.63842 4.24454,1.83423 8.33657,-2.3669 3.73034,-3.8298 15.45321,-20.94561 20.22292,-29.52618 5.15418,-9.27221 11.05889,-17.43178 12.95985,-17.9089 4.23012,-1.06169 6.35847,1.73724 4.26088,5.60336 -4.18834,7.71965 -8.21398,18.10509 -9.32013,24.04431 -0.66219,3.55545 1.01257,5.59983 3.4978,4.26978 2.97108,-1.59007 12.39536,-9.35457 14.49959,-11.94595 1.14447,-1.40943 3.78568,-4.43223 5.86934,-6.71733 2.08367,-2.2851 4.38794,-5.28095 5.1206,-6.65745 1.21938,-2.29094 1.55824,-2.46602 4.00442,-2.06906 5.73858,0.93124 6.10687,3.29532 1.71952,11.03775 -3.23612,5.71081 -6.13739,12.01214 -5.72196,12.42757 0.13573,0.13574 1.91609,-1.13754 3.95634,-2.82949 7.84323,-6.50429 19.85866,-15.62959 20.57974,-15.62959 0.41515,0 0.75482,0.64908 0.75482,1.4424 0,0.9272 -2.47793,3.38529 -6.9375,6.88193 -14.5413,11.4015 -20.67157,17.07296 -21.2177,19.6297 -1.25103,5.85675 -8.90174,27.56519 -11.91751,33.81521 -7.4708,15.48282 -12.11123,18.79908 -20.4971,14.64815 z m 7.2416,-6.3179 c 1.27994,-1.45778 3.80705,-5.7609 5.61579,-9.5625 3.70052,-7.77772 9.63599,-23.64132 9.26357,-24.75857 -0.30963,-0.9289 -9.12566,8.65379 -14.51942,15.78208 -5.42432,7.16868 -8.09079,12.99431 -7.52985,16.45099 0.87322,5.38102 3.58517,6.17079 7.16991,2.088 z m 13.99149,-14.20042 c 1.52369,-3.6467 1.29787,-4.27459 -0.41327,-1.14908 -1.49402,2.72892 -1.78993,3.74999 -1.08673,3.74999 0.2273,0 0.9023,-1.17041 1.5,-2.60091 z m 2.56376,-10.52408 c 0,-0.4125 -0.32716,-0.24375 -0.72703,0.375 -0.39987,0.61875 -0.72703,1.4625 -0.72703,1.875 0,0.4125 0.32716,0.24375 0.72703,-0.375 0.39987,-0.61875 0.72703,-1.4625 0.72703,-1.875 z m -222.51539,-2.90334 c 1.32738,-0.56559 3.25716,-1.98712 4.28841,-3.15896 l 1.875,-2.13062 -2.81512,2.07413 c -1.54832,1.14077 -4.07957,2.53852 -5.625,3.10611 -1.54543,0.5676 -2.20841,1.05576 -1.47329,1.08483 0.73513,0.029 2.42263,-0.4099 3.75,-0.97549 z m -5.85313,-4.54142 c 3.31922,-1.38685 6.39154,-7.16966 6.39154,-12.03031 0,-1.86996 -0.16797,-3.39993 -0.37326,-3.39993 -0.67839,0 -8.20795,5.46986 -10.63903,7.72874 -2.69945,2.50824 -4.3719,5.93828 -3.72165,7.63279 0.56171,1.4638 4.91761,1.49968 8.3424,0.0687 z m 109.58177,-13.4792 c 1.42275,-4.08318 2.46209,-7.54869 2.30965,-7.70113 -0.56371,-0.56371 -8.13753,19.94178 -7.94119,21.50009 0.0999,0.79312 3.15799,-6.70003 5.63154,-13.79896 z M 313.68101,183.125 c 0.0129,-0.4125 -0.27088,-0.24375 -0.63061,0.375 -0.35972,0.61875 -0.8473,3.14999 -1.08351,5.62499 l -0.42948,4.5 1.06008,-4.875 c 0.58305,-2.68125 1.07063,-5.21249 1.08352,-5.62499 z m 22.51116,-33.24195 c 8.10636,-13.5341 12.04639,-21.8222 14.1048,-29.67038 1.35603,-5.17015 0.90544,-6.9729 -1.51109,-6.04559 -3.20322,1.22918 -9.87185,15.19564 -16.57594,34.71577 -4.06575,11.83817 -4.57425,13.61715 -3.89234,13.61715 0.17465,0 3.71821,-5.67763 7.87457,-12.61695 z m -0.65457,-23.75804 c 1.59088,-2.85896 2.0183,-4.1061 1.17205,-3.41987 -0.73259,0.59406 -2.35075,3.12531 -3.59591,5.625 -2.78007,5.58105 -1.01551,3.97573 2.42386,-2.20513 z m 151.56059,122.56554 c -2.62725,-0.34057 -4.96163,-0.80403 -5.1875,-1.0299 -0.97851,-0.97852 0.58408,-0.98338 5.84589,-0.0181 3.09014,0.56684 6.63094,1.1661 7.86844,1.33169 1.72418,0.2307 1.5489,0.3051 -0.75,0.31833 -1.65,0.01 -5.14958,-0.26138 -7.77683,-0.60195 z m -12.47317,-1.45974 c -10.56168,-1.35885 -31.94037,-2.21223 -47.62499,-1.90107 -11.33812,0.22493 -16.44611,0.0915 -15.56788,-0.40674 1.95017,-1.10632 7.99074,-2.98874 11.81789,-3.68278 1.85625,-0.33663 6.41249,-1.37151 10.12499,-2.29972 3.7125,-0.92821 8.33252,-1.76782 10.2667,-1.8658 1.93419,-0.098 4.63419,-0.52021 6,-0.93828 3.73617,-1.14362 6.97949,-1.57587 15.2333,-2.03018 4.12499,-0.22705 10.36874,-0.69343 13.87499,-1.03639 3.50625,-0.34297 7.21875,-0.63042 8.25,-0.63879 30.13739,-0.24456 42.7716,-0.18132 62.99998,0.31535 37.34519,0.91693 65.97508,0.63271 72.74999,-0.72222 l 4.125,-0.82497 -6,-0.92429 c -3.3,-0.50836 -11.0625,-1.10924 -17.25,-1.33528 -6.1875,-0.22605 -13.44375,-0.60039 -16.12499,-0.83188 -11.97887,-1.03422 -23.33848,-1.25224 -63.74999,-1.22356 -43.33911,0.0308 -49.28306,0.14464 -55.49999,1.06338 -2.41235,0.3565 -2.73323,0.3178 -1.125,-0.13568 2.71978,-0.76692 2.4851,-0.88866 -1.87499,-0.97267 -1.85625,-0.0358 -4.34044,0.3291 -5.52042,0.81082 -1.17998,0.48172 -7.42373,1.03091 -13.875,1.22042 -6.45127,0.18951 -14.26083,0.70676 -17.35458,1.14944 -3.09374,0.44268 -9.67499,0.95365 -14.62499,1.1355 -4.95,0.18184 -10.51875,0.53547 -12.375,0.78583 -1.85625,0.25036 -5.4,0.60803 -7.875,0.79482 -4.17729,0.31527 -4.4121,0.25093 -3.27426,-0.89718 0.90561,-0.9138 2.96231,-1.30763 7.87499,-1.50798 3.6571,-0.14914 10.19302,-0.62733 14.52427,-1.06266 8.74254,-0.87867 29.01067,-2.14092 37.12499,-2.31204 2.8875,-0.0609 6.9375,-0.44108 9,-0.84485 2.0625,-0.40377 11.51249,-0.88583 20.99999,-1.07122 9.4875,-0.18539 26.3625,-0.51194 37.49999,-0.72564 11.1375,-0.21371 21.76875,-0.44714 23.625,-0.51875 7.44765,-0.28727 69.81992,1.65894 70.70546,2.20623 0.33111,0.20463 6.2422,0.70303 13.13576,1.10755 24.69948,1.44938 23.97721,1.35554 24.32217,3.16008 0.27958,1.46254 -0.0545,1.63902 -3.48962,1.84305 -2.08934,0.1241 -5.31166,0.56229 -7.16071,0.97375 -5.5104,1.22619 -20.43258,2.73722 -23.362,2.36565 -1.59661,-0.20251 -2.9434,0.01 -3.25427,0.51263 -0.38468,0.62244 -0.80108,0.63344 -1.51606,0.0401 -0.68936,-0.57212 -4.44608,-0.63434 -12.49572,-0.20695 -6.33052,0.33612 -13.87252,0.33134 -16.76002,-0.0106 -2.8875,-0.34196 -27.01875,-0.686 -53.62499,-0.76455 -37.94473,-0.11202 -49.56255,0.076 -53.88285,0.87189 -3.85345,0.70991 -5.74487,0.7777 -6.29688,0.22569 -0.84231,-0.84231 -4.97291,-0.35336 -6.15775,0.72892 -0.39188,0.35795 -3.09188,0.66184 -6,0.67531 -3.17948,0.0147 -6.92801,0.59073 -9.40236,1.44478 -2.26317,0.78117 -4.2886,1.13918 -4.50096,0.79558 -0.21235,-0.3436 -1.73567,-0.15982 -3.38514,0.4084 -1.64947,0.56821 -5.19279,1.23848 -7.87404,1.48947 -2.68125,0.251 -5.3229,0.88953 -5.87034,1.41896 -0.81186,0.78514 -0.2588,0.84589 3,0.32956 2.52363,-0.39984 4.08744,-0.36195 4.24534,0.10287 0.30893,0.90935 3.875,0.98547 3.875,0.0827 0,-0.35925 1.43438,-0.39807 3.1875,-0.0863 1.75313,0.31179 5.55,0.61881 8.4375,0.68228 16.64979,0.36593 30.67441,1.53516 31.78954,2.65029 0.63629,0.63629 1.00018,1.11408 0.80867,1.06178 -0.19152,-0.0523 -2.37322,-0.35564 -4.84822,-0.67407 z m 187.87496,-27.48657 c -1.79711,-0.69516 -4.53929,-3.43174 -5.88125,-5.86925 -1.87734,-3.40993 -1.61487,-16.81816 0.49663,-25.37172 0.89904,-3.64194 1.63462,-6.97554 1.63462,-7.40801 0,-0.43247 -1.53913,0.63242 -3.42029,2.36641 -4.03989,3.72383 -7.43511,5.28832 -11.47661,5.28832 -2.94322,0 -2.94702,0.004 -6.0379,6.24339 -3.24349,6.54752 -9.21395,13.24484 -13.13707,14.73641 -4.24439,1.61372 -8.6625,0.42212 -10.09542,-2.72279 -1.11221,-2.44104 -1.00938,-11.43437 0.20232,-17.69451 0.53894,-2.78437 0.77966,-5.05522 0.53493,-5.04632 -0.24472,0.009 -1.79495,1.9052 -3.44495,4.214 -6.34501,8.87843 -15.47535,14.99004 -19.592,13.11437 -2.45012,-1.11636 -4.29489,-5.61443 -3.80391,-9.275 0.38326,-2.85744 0.38135,-2.85605 -3.30444,2.39232 -8.53284,12.15032 -13.22237,14.03307 -18.21412,7.31258 -2.25717,-3.03888 -2.50717,-11.25441 -0.55195,-18.13865 0.81841,-2.88157 1.40304,-5.32418 1.29919,-5.42804 -0.10386,-0.10385 -2.31074,3.05206 -4.90419,7.01313 -2.59346,3.96108 -6.28209,8.80724 -8.19697,10.76923 -7.296,7.47557 -13.47777,5.06932 -13.77435,-5.36165 l -0.0702,-2.47016 -1.56851,2.16933 c -5.86041,8.10528 -10.93182,13.72453 -15.28498,16.93615 -5.3097,3.91733 -7.86788,4.55036 -10.32767,2.55559 -0.80071,-0.64934 -1.0003,-0.94611 -0.44352,-0.65949 0.83375,0.42919 0.8489,0.20748 0.0859,-1.25688 -1.22851,-2.3578 -1.84521,-2.89813 -1.1733,-1.02801 0.41124,1.14459 0.33061,1.29332 -0.34028,0.62772 -2.39359,-2.37472 -1.32229,-12.60068 1.58048,-15.0861 0.80292,-0.68749 1.4547,-1.59684 1.44838,-2.0208 -0.006,-0.42395 -0.33868,-0.26457 -0.73855,0.35418 -0.39987,0.61875 -0.72702,0.7875 -0.72702,0.375 0,-1.00311 1.44767,-3.20839 1.47702,-2.25 0.0126,0.4125 0.3476,0.24375 0.74436,-0.375 0.39678,-0.61875 0.5242,-1.75788 0.28317,-2.53142 -0.31317,-1.00507 -0.1682,-1.23954 0.508,-0.82162 0.5915,0.36557 0.75863,0.28126 0.44582,-0.22488 -0.60074,-0.97202 0.99841,-4.77311 1.79973,-4.27787 0.7583,0.46866 1.45639,-1.48062 0.83703,-2.33721 -0.27121,-0.3751 -1.67436,-0.68974 -3.11811,-0.69921 -1.44375,-0.009 -3.3,-0.25075 -4.125,-0.53618 -1.26288,-0.43693 -2.62629,0.9717 -8.62499,8.91105 -11.27551,14.92325 -19.70738,21.9608 -26.35981,22.00087 -2.19099,0.0132 -3.18757,-0.49921 -5.01179,-2.57688 -2.76905,-3.15377 -3.47196,-7.03 -2.94639,-16.24782 0.20882,-3.66236 0.24948,-6.65882 0.0904,-6.65882 -0.15913,0 -2.22613,1.29468 -4.59334,2.87708 -2.36721,1.5824 -5.47134,3.5338 -6.89806,4.33646 l -2.59405,1.45937 0.18652,6.72604 c 0.20909,7.53967 -0.46846,10.58955 -3.24143,14.59094 -3.55838,5.13474 -9.76053,7.41065 -16.42477,6.02717 -4.9354,-1.02458 -7.5691,-3.29042 -8.69809,-7.48317 -0.76725,-2.84935 -0.66645,-3.43525 1.11349,-6.47249 2.00671,-3.42419 7.00948,-7.83354 13.31488,-11.7355 3.85058,-2.38284 4.43276,-4.19644 2.75727,-8.58958 -0.7226,-1.89468 -1.60026,-7.25281 -2.71582,-16.58016 -0.47214,-3.94764 0.74424,-7.07954 3.72307,-9.58605 2.51627,-2.11731 5.54601,-2.20509 6.80282,-0.19709 0.5763,0.92076 0.41259,2.06528 -0.62433,4.36475 -1.27556,2.8287 -1.31974,3.6491 -0.47799,8.87699 1.73179,10.75575 2.5412,14.38523 3.20807,14.38523 1.09668,0 13.96132,-7.44699 16.3791,-9.48141 1.23679,-1.04069 3.56539,-4.70752 5.18697,-8.1679 3.69166,-7.8778 6.18455,-11.1631 10.3012,-13.57562 6.77132,-3.96825 12.23603,1.03139 11.33838,10.37345 -0.39554,4.11642 -2.33396,6.60149 -5.14934,6.60149 -1.7369,0 -1.81833,-1.67367 -0.29191,-6 1.40396,-3.97926 1.42892,-6.3141 0.0795,-7.43405 -2.16074,-1.79325 -4.627,2.4891 -9.2335,16.03282 -5.11154,15.02859 -5.79383,27.40122 -1.51105,27.40122 3.49064,0 9.46049,-5.34452 18.55892,-16.6149 8.46585,-10.48682 9.00789,-11.35494 8.56471,-13.7173 -1.02136,-5.44429 4.42596,-11.17259 8.97857,-9.4417 2.4108,0.91659 2.41975,1.64436 0.0629,5.1128 -1.03125,1.51762 -1.875,3.36432 -1.875,4.10378 0,1.63497 2.81885,2.80733 6.74999,2.80733 4.04755,0 6.75,1.16566 6.75,2.91152 0,0.79676 -1.04393,3.75823 -2.31984,6.58106 -4.12316,9.12206 -8.29518,20.46454 -7.8138,21.24342 0.61341,0.99253 3.86015,-0.73548 6.58167,-3.50297 4.39917,-4.47347 16.97782,-21.87196 19.65098,-27.18077 1.54334,-3.06501 3.48733,-6.49422 4.32001,-7.62047 2.03495,-2.75238 8.22278,-6.68179 10.52214,-6.68179 2.63024,0 5.30019,2.35855 6.94277,6.133 0.77598,1.7831 1.50196,3.37129 1.6133,3.52931 0.11133,0.15802 1.40675,-0.7701 2.87871,-2.0625 3.08253,-2.7065 5.73151,-2.99239 7.87409,-0.84981 1.98611,1.98611 1.90573,2.94915 -0.75142,9.00323 -3.42204,7.79681 -5.77744,22.36786 -3.81208,23.58251 1.41435,0.87412 5.43836,-3.71523 12.3215,-14.05257 3.90322,-5.862 7.33631,-11.50192 7.62908,-12.53317 0.76332,-2.68867 5.35988,-9.49242 6.78158,-10.03798 2.04174,-0.78348 3.27134,-0.52201 4.81788,1.02453 1.23487,1.23487 1.3539,1.83544 0.70308,3.54724 -0.43091,1.13337 -1.02879,2.2363 -1.32864,2.45095 -0.85194,0.60987 -4.23856,8.76844 -6.44907,15.5362 -2.21663,6.78646 -2.34209,11.68916 -0.30898,12.07402 2.26382,0.42854 9.96869,-7.76548 16.32549,-17.36193 6.90761,-10.42796 9.06014,-12.14587 12.44214,-9.9299 2.2761,1.49136 2.32128,2.26878 0.35457,6.10079 -2.06565,4.02479 -3.54099,9.27816 -4.85172,17.27597 -1.39603,8.51831 -1.39225,10.44413 0.0232,11.85966 1.78403,1.78403 3.14255,0.71706 6.44789,-5.06412 1.68249,-2.94274 4.16099,-7.20669 5.50776,-9.47544 1.78834,-3.0126 2.55448,-5.35629 2.84102,-8.69088 0.45582,-5.30477 1.54886,-7.69888 5.59828,-12.262 2.07212,-2.33499 3.30987,-3.16863 4.19838,-2.82768 1.7276,0.66294 1.60025,3.94611 -0.25407,6.55027 -0.83272,1.16944 -2.34857,4.34342 -3.36856,7.05328 l -1.85449,4.92701 h 2.07216 c 2.65985,0 9.82682,-4.72722 13.24953,-8.73917 2.09224,-2.45245 3.70986,-6.1976 7.61263,-17.625 4.81245,-14.09099 10.31169,-26.77382 13.934,-32.13581 0.97532,-1.44375 3.37462,-5.2099 5.33177,-8.36922 6.39443,-10.32218 11.17558,-12.7997 15.5872,-8.07705 4.46985,4.785 3.7389,11.4109 -2.72444,24.69627 -2.30784,4.74375 -5.19864,9.97499 -6.42402,11.62499 -1.22537,1.65 -4.60121,6.69003 -7.50185,11.20007 -2.90065,4.51003 -6.71301,10.07878 -8.47191,12.37499 -4.32647,5.64813 -4.55126,6.14366 -7.21308,15.90013 -2.91182,10.67279 -3.80919,22.87452 -1.89693,25.793 2.38794,3.64445 5.45167,1.95538 12.46774,-6.87361 4.92016,-6.19151 14.3212,-21.0853 20.11927,-31.87437 4.19043,-7.79757 8.74991,-13.54038 12.14365,-15.29536 4.30913,-2.22833 11.59826,-0.81242 13.42914,2.60861 1.07881,2.01577 0.96242,4.88454 -0.323,7.96098 -1.56399,3.74315 -9.00799,10.53423 -14.27946,13.02701 l -4.5003,2.1281 -1.31046,7.16927 c -1.46604,8.02047 -0.99965,11.00617 1.71926,11.00617 3.12426,0 10.92837,-6.74375 16.92458,-14.625 1.25535,-1.65 4.85691,-6.41666 8.00347,-10.59258 6.87892,-9.1293 9.54697,-11.53241 12.8038,-11.53241 2.59145,0 4.73912,1.19338 8.51953,4.734 l 2.41018,2.25731 0.77732,-2.04448 c 0.42751,-1.12446 0.7773,-2.31234 0.7773,-2.63971 0,-1.65427 6.57976,-17.98958 10.46439,-25.97954 6.01004,-12.36152 10.56226,-16.74914 17.43129,-16.80099 2.66684,-0.0201 4.03101,0.41276 5.625,1.78501 1.86856,1.60863 2.10048,2.30184 2.07002,6.18749 -0.0586,7.47722 -5.78913,17.1265 -23.8768,40.20468 -4.65896,5.9444 -5.36818,7.67724 -6.85171,16.74082 -1.61681,9.87773 -1.75831,17.44255 -0.34265,18.31747 1.58318,0.97846 2.88982,-0.44177 13.4664,-14.63707 C 782.83012,180.33368 789.19007,173 790.72197,173 c 2.19159,0 0.2678,3.63266 -4.6921,8.85999 -3.00853,3.17075 -8.69984,10.32462 -12.64733,15.89749 -10.04193,14.17664 -14.14417,17.65593 -18.39517,15.60172 -3.72327,-1.79919 -5.11241,-5.37823 -5.11241,-13.17171 0,-3.81562 -0.18999,-6.9375 -0.42219,-6.9375 -0.2322,0 -1.41345,1.0419 -2.625,2.31533 -1.21155,1.27343 -4.17688,3.80468 -6.58962,5.625 -6.0641,4.57512 -10.34281,4.43355 -12.85543,-0.42531 -1.28948,-2.4936 -1.51434,-10.16375 -0.38502,-13.13405 1.09416,-2.87787 -0.0669,-1.83744 -5.23919,4.69474 -6.09327,7.69535 -11.01177,12.64009 -13.667,13.73993 -3.02985,1.255 -7.66686,-0.24096 -10.96255,-3.53665 -2.85518,-2.85518 -2.86015,-2.96881 -0.5857,-13.37431 0.62758,-2.87118 1.04369,-5.31769 0.92468,-5.4367 -0.11901,-0.11901 -1.34179,1.55513 -2.7173,3.72032 -11.49972,18.10179 -17.79282,26.31461 -22.80717,29.76457 -3.20811,2.20724 -7.39467,3.3339 -9.44349,2.54138 z m -217.28836,-3.52259 c 1.32737,-0.56559 3.25716,-1.98712 4.28841,-3.15896 l 1.875,-2.13062 -2.81513,2.07413 c -1.54831,1.14077 -4.07956,2.53852 -5.62499,3.10611 -1.54543,0.5676 -2.20842,1.05576 -1.47329,1.08483 0.73512,0.029 2.42262,-0.4099 3.75,-0.97549 z m -5.85313,-4.54142 c 3.31921,-1.38685 6.39154,-7.16966 6.39154,-12.03031 0,-1.86996 -0.16797,-3.39993 -0.37327,-3.39993 -0.67838,0 -8.20794,5.46986 -10.63902,7.72874 -2.69945,2.50824 -4.3719,5.93828 -3.72166,7.63279 0.56172,1.4638 4.91762,1.49968 8.34241,0.0687 z m 176.59835,-6.47991 c -0.42211,-1.41643 -0.59707,-4.93783 -0.38879,-7.82533 0.24886,-3.45 0.15631,-4.60714 -0.26993,-3.375 -0.94726,2.73833 -0.92649,9.15794 0.0385,11.92637 1.10295,3.16392 1.60445,2.57679 0.62014,-0.72604 z M 743.63579,194.7244 c 6.7468,-5.70793 7.70609,-7.3767 8.50525,-14.79557 0.43572,-4.04484 0.32178,-4.47308 -1.89333,-7.11633 -4.16418,-4.96901 -6.11127,-3.49707 -11.34921,8.57961 -4.77384,11.00662 -5.80988,18.60788 -2.53624,18.60788 0.57077,0 3.84386,-2.37402 7.27353,-5.27559 z m -85.12348,-2.36503 c -0.23941,-0.5983 -0.41713,-0.42059 -0.45312,0.45313 -0.0325,0.79062 0.1447,1.23359 0.39392,0.98437 0.24921,-0.24922 0.27585,-0.8961 0.0592,-1.4375 z m -99.66964,-8.737 c 4.84798,-6.4365 6.83658,-9.66378 6.53676,-10.60843 -0.237,-0.74672 -0.56229,-2.39573 -0.72285,-3.66446 -0.71448,-5.64552 -2.61684,-6.88921 -5.74813,-3.75793 -3.71167,3.71167 -9.59734,19.59281 -9.64543,26.02593 -0.0258,3.45387 2.61859,1.24687 9.57965,-7.99511 z m 101.75097,-1.5052 c -0.41607,-0.45781 -1.83718,5.44767 -1.77662,7.38282 0.0323,1.03125 0.49793,-0.15 1.0348,-2.625 0.53688,-2.47499 0.8707,-4.61602 0.74182,-4.75782 z m 50.70443,-6.52748 c 4.79367,-3.51888 8.20189,-8.21495 8.20189,-11.30111 0,-8.34854 -3.99118,-5.63337 -9.73433,6.62219 -4.07814,8.70253 -4.05308,8.77906 1.53244,4.67892 z m 56.86001,-8.45189 c 1.58978,-2.34454 5.18054,-7.6378 7.97946,-11.7628 6.66526,-9.82313 10.1425,-17.14662 10.23083,-21.5474 0.25171,-12.54005 -8.73796,-1.23266 -16.8326,21.1724 -4.24797,11.75789 -5.92797,17.42638 -4.9936,16.84891 0.39897,-0.24658 2.02612,-2.36658 3.61591,-4.71111 z m -7.85857,-1.88814 c 0.33488,-1.39401 0.24215,-1.95945 -0.2695,-1.64324 -0.42903,0.26516 -0.78006,1.36219 -0.78006,2.43784 0,2.35093 0.35925,2.07895 1.04956,-0.7946 z M 686.73122,143.7905 c 8.62471,-14.95966 13.74431,-30.67537 9.74179,-29.90456 -3.65178,0.70327 -10.15873,13.97173 -17.55123,35.78906 -2.432,7.17749 -4.41581,13.25248 -4.40849,13.49999 0.021,0.70892 7.20142,-10.68329 12.21793,-19.38449 z m 75.83429,10.4595 0.49701,-1.875 -1.12971,1.875 c -0.62133,1.03125 -1.1314,2.38125 -1.13348,3 -0.003,1 0.067,1 0.63271,0 0.35005,-0.61875 0.86012,-1.96875 1.13347,-3 z m -79.84738,-28.87499 c 1.80426,-3.35417 2.00095,-4.0244 0.77247,-2.63216 -1.62119,1.83731 -5.24063,8.41512 -5.24063,9.5241 0,0.85528 1.76644,-1.86937 4.46816,-6.89194 z m 11.42805,65.24998 c 0.0153,-1.2375 0.18338,-1.65295 0.37353,-0.92322 0.19016,0.72972 0.17765,1.74222 -0.0278,2.25 -0.20545,0.50777 -0.36103,-0.0893 -0.34575,-1.32678 z M 182.79766,159.08348 c -0.34615,-1.37915 -0.0418,-2.38402 1.08536,-3.58385 2.15206,-2.29078 4.04405,-7.89236 3.6103,-10.68899 -0.48656,-3.13711 0.41442,-4.31063 3.30949,-4.31063 1.71995,0 2.95026,0.59939 4.19098,2.04182 2.22348,2.58495 2.20467,2.8858 -0.36716,5.86957 -2.37692,2.75766 -3.38682,4.77359 -3.45531,6.89736 -0.0254,0.78857 -0.55248,1.60283 -1.17123,1.80947 -0.96472,0.32218 -0.97835,0.19806 -0.0957,-0.87126 0.56613,-0.68583 0.73488,-1.23636 0.375,-1.2234 -0.35989,0.013 -1.30262,0.91227 -2.09497,1.99845 -0.88748,1.2166 -1.03147,1.734 -0.375,1.34751 0.5861,-0.34505 0.4227,0.10564 -0.36311,1.00155 -1.95081,2.22414 -4.0509,2.09421 -4.64869,-0.2876 z"
       id="path140" />
  </g>
  <path
     style="fill:#a0a0a0;stroke:none;stroke-width:0.754601"
     d=""
     id="path154"
     transform="matrix(0.74999984,0,0,0.74999984,-6.573849e-4,0)" />
</svg>
