<?xml version="1.0" standalone="no"?>
<!DOCTYPE svg PUBLIC "-//W3C//DTD SVG 20010904//EN"
 "http://www.w3.org/TR/2001/REC-SVG-20010904/DTD/svg10.dtd">
<svg version="1.0" xmlns="http://www.w3.org/2000/svg"
 width="426.000000pt" height="80.000000pt" viewBox="0 0 426.000000 80.000000"
 preserveAspectRatio="xMidYMid meet">

<g transform="translate(0.000000,80.000000) scale(0.100000,-0.100000)"
fill="#000000" stroke="none">
<path d="M2295 649 c-33 -4 -141 -6 -239 -4 -99 1 -192 -2 -207 -7 -17 -6 -40
-6 -61 0 -20 5 -76 4 -145 -3 -62 -6 -120 -8 -129 -5 -9 4 -42 3 -73 -2 -31
-5 -173 -15 -316 -24 -143 -8 -305 -19 -360 -25 -55 -5 -137 -11 -182 -12 -48
-2 -88 -8 -95 -15 -26 -26 8 -30 132 -17 134 15 363 32 525 40 149 6 238 16
252 28 9 6 23 5 43 -3 19 -8 46 -10 73 -5 70 12 995 20 1237 10 124 -4 307
-15 365 -21 17 -1 84 -5 150 -9 66 -3 145 -9 175 -14 52 -7 53 -8 25 -16 -29
-8 -377 -10 -1345 -5 -266 1 -479 -2 -530 -8 -47 -6 -125 -14 -174 -17 -49 -3
-110 -11 -135 -16 -25 -6 -75 -14 -111 -19 -82 -10 -157 -26 -193 -39 -16 -6
-45 -11 -66 -11 -20 0 -41 -4 -46 -9 -6 -5 -34 -16 -62 -26 -29 -9 -53 -20
-53 -23 0 -4 138 -7 308 -7 190 0 358 -5 440 -14 73 -7 135 -11 138 -8 3 3 -4
11 -16 17 -22 12 -468 38 -617 36 -87 -1 -81 15 8 21 34 2 68 8 74 13 7 6 28
10 46 9 19 -1 59 6 89 15 30 9 90 16 133 17 46 0 75 4 72 10 -4 5 17 8 52 7
32 -1 114 2 183 6 69 5 231 8 360 8 129 0 285 0 345 0 61 0 124 0 140 0 17 -1
134 -3 260 -7 321 -7 397 -7 457 0 29 4 63 3 75 -2 23 -9 164 -1 268 15 33 5
104 15 158 22 90 12 97 15 97 36 0 25 27 22 -327 43 -95 5 -181 12 -190 15
-20 6 -242 15 -533 21 -107 3 -244 7 -305 9 -60 2 -137 0 -170 -5z"/>
<path d="M1660 351 c0 -18 21 -24 103 -28 44 -2 106 -13 138 -23 32 -11 69
-20 81 -20 13 0 52 -8 88 -19 163 -49 188 -55 238 -61 28 -3 48 -2 44 2 -5 5
-27 10 -49 12 -22 3 -49 9 -59 14 -30 15 -240 69 -339 87 -49 9 -110 20 -135
25 -25 5 -60 12 -77 15 -20 4 -33 3 -33 -4z"/>
<path d="M2397 179 c7 -7 15 -10 18 -7 3 3 -2 9 -12 12 -14 6 -15 5 -6 -5z"/>
</g>
</svg>
