<?xml version="1.0" standalone="no"?>
<!DOCTYPE svg PUBLIC "-//W3C//DTD SVG 20010904//EN"
 "http://www.w3.org/TR/2001/REC-SVG-20010904/DTD/svg10.dtd">
<svg version="1.0" xmlns="http://www.w3.org/2000/svg"
 width="426.000000pt" height="426.000000pt" viewBox="0 0 426.000000 426.000000"
 preserveAspectRatio="xMidYMid meet">

<g transform="translate(0.000000,426.000000) scale(0.100000,-0.100000)"
fill="#000000" stroke="none">
<path d="M2310 2319 c-47 -5 -164 -7 -260 -5 -96 2 -186 -1 -201 -6 -15 -5
-41 -6 -59 -1 -18 5 -69 5 -114 1 -44 -4 -126 -10 -181 -12 -171 -7 -615 -35
-725 -46 -58 -6 -143 -12 -189 -14 -56 -2 -86 -8 -92 -17 -13 -21 6 -26 64
-17 28 4 104 10 167 13 63 3 162 10 220 16 58 6 150 12 205 14 55 2 134 9 175
15 41 6 85 10 98 10 31 -1 67 -1 427 5 655 11 935 6 1355 -24 63 -4 131 -8
150 -9 19 -1 62 -5 95 -10 56 -8 58 -9 30 -17 -29 -8 -432 -10 -1360 -6 -255
1 -476 -2 -525 -8 -47 -6 -125 -13 -175 -16 -49 -3 -116 -12 -148 -20 -32 -8
-75 -15 -95 -15 -20 0 -89 -13 -152 -29 -63 -16 -122 -29 -130 -29 -8 0 -43
-10 -78 -23 -67 -24 -67 -38 1 -33 23 2 130 3 237 4 177 1 286 -5 513 -26 42
-4 77 -4 77 -1 0 16 -46 27 -127 32 -208 12 -444 22 -515 21 -95 -1 -88 16 9
21 37 2 72 8 77 13 6 6 25 10 44 10 19 0 60 7 92 15 32 8 92 16 133 17 41 2
73 6 70 11 -2 4 19 7 49 6 29 -1 109 2 178 6 125 9 575 9 1285 0 209 -3 385
-6 390 -6 27 -2 187 11 240 19 33 5 104 15 158 22 90 12 98 15 95 34 -3 24
-12 25 -328 46 -91 6 -205 13 -255 17 -126 9 -156 10 -460 17 -148 3 -295 8
-325 10 -30 2 -93 0 -140 -5z"/>
<path d="M1660 2021 c0 -17 17 -22 97 -27 43 -3 103 -12 133 -20 30 -9 75 -19
100 -23 25 -4 68 -15 95 -24 94 -30 167 -49 172 -44 7 8 -27 24 -67 32 -19 3
-62 15 -95 25 -33 10 -109 28 -170 40 -60 11 -130 25 -155 30 -102 21 -110 21
-110 11z"/>
<path d="M2280 1880 c0 -5 15 -10 33 -9 27 0 29 2 12 9 -28 12 -45 12 -45 0z"/>
</g>
</svg>
