<?xml version="1.0" standalone="no"?>
<!DOCTYPE svg PUBLIC "-//W3C//DTD SVG 20010904//EN"
 "http://www.w3.org/TR/2001/REC-SVG-20010904/DTD/svg10.dtd">
<svg version="1.0" xmlns="http://www.w3.org/2000/svg"
 width="500.000000pt" height="500.000000pt" viewBox="0 0 500.000000 500.000000"
 preserveAspectRatio="xMidYMid meet">

<g transform="translate(0.000000,500.000000) scale(0.100000,-0.100000)"
fill="#000000" stroke="none">
<path d="M3150 4830 c-47 -9 -106 -35 -155 -68 -199 -132 -477 -439 -704 -777
-215 -320 -343 -544 -412 -723 -20 -53 -41 -87 -69 -115 -45 -43 -59 -71 -64
-129 -3 -30 -15 -50 -57 -96 -113 -120 -271 -339 -483 -672 -148 -231 -192
-310 -352 -630 -216 -434 -288 -655 -239 -737 16 -27 16 -32 1 -76 -30 -88
-18 -147 28 -147 12 0 82 -15 156 -34 142 -36 242 -56 375 -76 44 -7 132 -21
195 -31 63 -11 192 -33 285 -48 94 -16 278 -56 410 -90 132 -33 353 -86 490
-117 215 -49 265 -57 360 -58 203 -2 263 49 204 172 -31 64 -126 154 -305 290
-203 154 -256 195 -327 254 l-58 48 33 0 c29 0 182 -20 263 -34 214 -37 281
-51 550 -111 404 -91 516 -114 655 -134 273 -40 623 -48 722 -18 67 20 83 48
53 93 -18 28 -151 117 -230 153 -290 136 -622 271 -1105 451 -268 99 -680 257
-790 301 -139 57 -333 149 -327 156 4 4 254 -22 306 -32 11 -2 41 -6 68 -10
89 -12 406 -72 508 -95 151 -36 214 -50 245 -55 39 -7 644 -159 811 -204 l107
-29 11 42 c7 22 14 48 17 57 4 14 -20 23 -143 53 -159 38 -320 75 -473 107
-52 11 -135 29 -185 40 -49 11 -155 33 -235 50 -80 16 -161 34 -180 39 -19 5
-51 12 -70 15 -19 3 -66 12 -105 20 -473 96 -904 145 -994 114 -53 -19 -39
-45 59 -107 130 -84 343 -171 955 -391 171 -62 321 -117 335 -123 14 -5 95
-36 180 -68 163 -61 384 -150 485 -194 33 -15 83 -37 110 -49 156 -69 404
-199 430 -226 27 -30 28 -32 12 -48 -14 -14 -34 -17 -106 -16 -75 1 -242 20
-341 38 -14 2 -92 16 -175 30 -82 14 -206 37 -275 51 -119 23 -186 38 -485
104 -71 16 -173 38 -225 49 -52 11 -129 27 -170 35 -41 9 -100 20 -130 26
-344 59 -365 60 -401 31 l-23 -18 28 -47 c33 -56 132 -143 331 -286 184 -134
339 -269 383 -335 17 -27 32 -53 32 -57 0 -14 -134 -8 -250 11 -125 21 -477
105 -715 170 -126 35 -254 61 -420 87 -16 3 -66 11 -110 20 -44 8 -154 26
-245 40 -91 13 -214 36 -275 49 -60 14 -113 25 -117 25 -5 0 -8 5 -8 10 0 6
11 10 25 10 96 0 229 119 469 419 195 245 368 491 552 787 203 326 315 526
364 646 19 47 29 60 55 68 56 18 105 86 105 144 0 13 20 41 51 71 207 201 574
742 768 1132 171 343 216 555 148 694 -42 86 -113 126 -197 109z m-340 -493
c0 -2 -8 -26 -17 -53 -42 -125 -128 -267 -345 -571 -123 -172 -259 -364 -303
-427 -44 -62 -81 -113 -83 -111 -3 2 170 344 213 420 101 181 195 328 309 485
127 175 226 288 226 257z m-1121 -1773 c-156 -304 -239 -454 -371 -667 -54
-88 -98 -161 -98 -163 0 -2 -21 -36 -47 -76 -25 -40 -76 -122 -113 -183 -36
-60 -93 -154 -125 -207 -33 -53 -61 -95 -63 -93 -10 9 328 673 420 824 21 34
38 65 38 67 0 2 20 35 45 74 25 39 45 73 45 75 0 19 329 499 337 492 2 -2 -29
-67 -68 -143z m-928 -1769 c0 -10 -84 -75 -98 -75 -8 0 -8 13 2 49 19 71 21
73 61 52 19 -11 35 -22 35 -26z"/>
</g>
</svg>
